<?xml version="1.0" standalone="no"?>
<!DOCTYPE svg PUBLIC "-//W3C//DTD SVG 1.1//EN" "http://www.w3.org/Graphics/SVG/1.1/DTD/svg11.dtd" >
<svg xmlns="http://www.w3.org/2000/svg" xmlns:xlink="http://www.w3.org/1999/xlink" version="1.1">
<metadata>
Created by FontForge 20161013 at Sat Nov 24 00:13:36 2012
 By ,,,
Copyright (c) 2012 by Rene Bieder. All rights reserved.
</metadata>
<defs>
<font id="RBNo2.1a-Medium" horiz-adv-x="389" >
  <font-face 
    font-family="RBNo2.1a Medium"
    font-weight="450"
    font-stretch="normal"
    units-per-em="1000"
    panose-1="2 0 0 0 0 0 0 0 0 0"
    ascent="800"
    descent="-200"
    x-height="565"
    cap-height="700"
    bbox="-29 -215 848 923"
    underline-thickness="50"
    underline-position="-200"
    unicode-range="U+0020-FB02"
  />
<missing-glyph horiz-adv-x="450" 
d="M0 0v700h450v-700h-450zM241 350l181 -305v609zM209 350l-180 304v-609zM225 325l-176 -297h352zM49 673l176 -298l176 298h-352z" />
    <glyph glyph-name="fi" unicode="fi" horiz-adv-x="399" 
d="M250 715v-85h-77q-27 0 -27 -32v-33h216v-565h-95v485h-121v-485h-95v485h-41v80h41v40q0 68 24.5 89t97.5 21h77z" />
    <glyph glyph-name="fl" unicode="fl" horiz-adv-x="398" 
d="M173 715h189v-715h-95v640h-94q-27 0 -27 -32v-43h64v-80h-64v-485h-95v485h-41v80h41v40q0 68 24.5 89t97.5 21z" />
    <glyph glyph-name=".notdef" horiz-adv-x="450" 
d="M0 0v700h450v-700h-450zM241 350l181 -305v609zM209 350l-180 304v-609zM225 325l-176 -297h352zM49 673l176 -298l176 298h-352z" />
    <glyph glyph-name=".null" horiz-adv-x="0" 
 />
    <glyph glyph-name="nonmarkingreturn" horiz-adv-x="333" 
 />
    <glyph glyph-name="space" unicode=" " horiz-adv-x="150" 
 />
    <glyph glyph-name="exclam" unicode="!" horiz-adv-x="191" 
d="M71 209l-23 305v186h95v-186l-23 -305h-49zM53 0v127h85v-127h-85z" />
    <glyph glyph-name="quotedbl" unicode="&#x22;" horiz-adv-x="299" 
d="M41 415l-2 285h85v-111l-25 -174h-58zM177 415l-2 285h85v-111l-25 -174h-58z" />
    <glyph glyph-name="numbersign" unicode="#" horiz-adv-x="577" 
d="M72 461l11 70h81l27 169h74l-26 -169h141l26 169h75l-27 -169h98l-12 -70h-98l-36 -235h97l-12 -69h-97l-24 -157h-74l24 157h-142l-23 -157h-74l24 157h-82l11 69h83l35 235h-80zM226 461l-35 -235h141l35 235h-141z" />
    <glyph glyph-name="dollar" unicode="$" horiz-adv-x="402" 
d="M168 -86v83q-79 2 -108.5 32.5t-29.5 114.5v92h100v-99q0 -36 13.5 -45.5t45.5 -9.5h25q31 0 45 9.5t14 45.5v103q0 11 -1 19t-5 14t-6.5 10t-10.5 8.5t-12 6.5t-15 6.5t-16 6.5l-73 25q-27 11 -41.5 18.5t-31.5 22.5t-24 38t-7 56v85q0 84 29.5 114.5t108.5 32.5v69h81
v-71q68 -5 94 -35.5t26 -109.5v-91h-100v99q0 36 -13.5 45t-45.5 9h-21q-16 0 -24.5 -1t-17.5 -6t-13 -16.5t-4 -30.5v-68q0 -20 3 -32t15.5 -21.5t21 -13t34.5 -13.5l69 -24q51 -19 75.5 -46.5t24.5 -90.5v-111q0 -81 -27 -111.5t-97 -34.5v-84h-81z" />
    <glyph glyph-name="percent" unicode="%" horiz-adv-x="631" 
d="M130 702h38q51 0 71.5 -21t20.5 -71v-203q0 -51 -20.5 -72t-71.5 -21h-38q-51 0 -71.5 21t-20.5 72v203q0 50 20.5 71t71.5 21zM463 386h38q51 0 71.5 -21t20.5 -71v-203q0 -51 -20.5 -72.5t-71.5 -21.5h-38q-51 0 -71.5 21.5t-20.5 72.5v203q0 50 20.5 71t71.5 21z
M498 338h-32q-18 0 -26.5 -8t-8.5 -29v-217q0 -21 8.5 -29t26.5 -8h32q18 0 26.5 8t8.5 29v217q0 21 -8.5 29t-26.5 8zM165 654h-32q-18 0 -26.5 -8t-8.5 -29v-217q0 -21 8.5 -29t26.5 -8h32q18 0 26.5 8t8.5 29v217q0 21 -8.5 29t-26.5 8zM148 0l270 700h60l-270 -700h-60z
" />
    <glyph glyph-name="ampersand" unicode="&#x26;" horiz-adv-x="480" 
d="M317 670v-85h-102q-26 0 -40 -12t-14 -44v-73q0 -32 13 -43.5t39 -12.5h259v-65l-100 -20v-315h-179q-49 0 -74.5 4t-45.5 18.5t-27 42.5t-7 77v102q0 107 85 115q-63 10 -63 112v58q0 85 32 113t122 28h102zM279 81v228h-84q-27 0 -41.5 -12t-14.5 -44v-121
q0 -32 13 -41.5t41 -9.5h86z" />
    <glyph glyph-name="quotesingle" unicode="'" horiz-adv-x="163" 
d="M41 415l-2 285h85v-111l-25 -174h-58z" />
    <glyph glyph-name="parenleft" unicode="(" horiz-adv-x="208" 
d="M124 586v-560q0 -46 12 -71q4 -9 22.5 -31.5t20.5 -25.5l-39 -37q-40 28 -70 66q-31 37 -31 99v560q0 61 31 98q30 38 70 66l38 -37q-1 -2 -19.5 -25t-22.5 -32q-12 -25 -12 -70z" />
    <glyph glyph-name="parenright" unicode=")" horiz-adv-x="208" 
d="M84 26v560q0 45 -12 70q-4 9 -22.5 32t-19.5 25l38 37q40 -28 70 -66q31 -37 31 -98v-560q0 -62 -31 -99q-30 -38 -70 -66l-39 37q2 3 20.5 25.5t22.5 31.5q12 25 12 71z" />
    <glyph glyph-name="asterisk" unicode="*" horiz-adv-x="334" 
d="M287 439l-48 30l-57 55l9 16l74 -28l47 -29zM143 547l-74 28l-47 30l25 44l48 -30l57 -56zM152 524l-57 -55l-48 -30l-25 44l47 29l74 28zM312 605l-47 -30l-74 -28l-9 16l57 56l48 30zM142 387v56l16 78h18l16 -78v-56h-50zM158 566l-16 78v56h50v-56l-16 -78h-18z" />
    <glyph glyph-name="plus" unicode="+" horiz-adv-x="335" 
d="M21 326v66h113v113h66v-113h115v-66h-115v-115h-66v115h-113z" />
    <glyph glyph-name="comma" unicode="," horiz-adv-x="163" 
d="M38 0v122h87v-97q0 -43 -12 -69.5t-43 -66.5l-29 21q20 32 25 47.5t5 42.5h-33z" />
    <glyph glyph-name="hyphen" unicode="-" horiz-adv-x="286" 
d="M21 261v78h244v-78h-244z" />
    <glyph glyph-name="period" unicode="." horiz-adv-x="182" 
d="M48 0v122h86v-122h-86z" />
    <glyph glyph-name="slash" unicode="/" horiz-adv-x="253" 
d="M21 -36l140 775h61l-141 -775h-60z" />
    <glyph glyph-name="zero" unicode="0" horiz-adv-x="421" 
d="M194 703h33q90 0 124.5 -33t34.5 -124v-392q0 -90 -34.5 -123.5t-124.5 -33.5h-33q-90 0 -124.5 33.5t-34.5 123.5v392q0 91 34.5 124t124.5 33zM194 82h33q31 0 45 10t14 46v424q0 36 -14 46t-45 10h-33q-31 0 -45 -10t-14 -46v-424q0 -36 14 -46t45 -10z" />
    <glyph glyph-name="one" unicode="1" horiz-adv-x="327" 
d="M-4 642l135 58h96v-619h97v-81h-294v81h102v524l-111 -29z" />
    <glyph glyph-name="two" unicode="2" horiz-adv-x="374" 
d="M28 0v176q0 52 18 84t52 61l91 80q37 29 52.5 57t15.5 66v43q0 36 -13.5 45.5t-45.5 9.5h-17q-31 0 -45 -9.5t-14 -45.5v-83h-92v72q0 88 35 117.5t119 29.5h25q79 0 109 -32.5t30 -114.5v-46q0 -57 -19 -89.5t-59 -66.5l-84 -74q-5 -5 -16 -14t-15 -12.5t-11 -11
t-10 -13t-6.5 -14t-4.5 -18t-1 -21.5v-95h230v-81h-324z" />
    <glyph glyph-name="three" unicode="3" horiz-adv-x="380" 
d="M104 318v81h115q22 0 33 10.5t11 39.5v117q0 36 -14 46t-45 10h-32q-31 0 -45 -10t-14 -46v-60h-88v50q0 90 32.5 118.5t124.5 28.5h27q84 0 116.5 -29t32.5 -118v-84q0 -56 -14.5 -81t-45.5 -30q32 -5 46 -28t14 -81v-108q0 -50 -9.5 -80.5t-31.5 -44.5t-45 -18t-63 -4
h-27q-92 0 -124.5 28.5t-32.5 118.5v55h90v-65q0 -36 14 -46t45 -10h30q31 0 45 10t14 46v133q0 29 -11 39.5t-33 11.5h-115z" />
    <glyph glyph-name="four" unicode="4" horiz-adv-x="440" 
d="M1 223l175 477h161v-467h91v-81h-91v-152h-95v152h-241v71zM233 618l-131 -385h140v385h-9z" />
    <glyph glyph-name="five" unicode="5" horiz-adv-x="377" 
d="M43 700h292v-85h-200v-179h103q63 0 91 -24t28 -103v-165q0 -51 -7 -80.5t-28.5 -44t-47.5 -18.5t-76 -4h-41q-80 0 -106 28t-26 119v68h92v-88q0 -10 1.5 -17t2.5 -12t5.5 -8.5t6.5 -5t9 -2.5t9.5 -1h12h12.5h27h11h11t9 0.5t8 1.5t6.5 3.5t6 5.5l4 8t3 11.5t0.5 15.5
v173q0 31 -12 41t-37 10h-175z" />
    <glyph glyph-name="six" unicode="6" horiz-adv-x="381" 
d="M181 409h42q43 0 66 -4.5t41.5 -20.5t25 -47t6.5 -85v-108q0 -90 -31.5 -118.5t-122.5 -28.5h-26q-89 0 -123 32.5t-34 114.5v407q0 90 34 121t125 31h22q75 0 108 -30t33 -117v-62h-92v72q0 26 -8 38.5t-18 15t-31 2.5h-21q-30 0 -43.5 -10t-13.5 -46v-172q23 15 61 15z
M208 328h-42q-23 0 -34.5 -8t-11.5 -32v-154q0 -36 14.5 -46t44.5 -10h29q30 0 44.5 10t14.5 46v133q0 37 -14.5 49t-44.5 12z" />
    <glyph glyph-name="seven" unicode="7" horiz-adv-x="345" 
d="M15 615v85h314v-91l-174 -609h-98l174 599v16h-216z" />
    <glyph glyph-name="eight" unicode="8" horiz-adv-x="390" 
d="M188 -3q-95 0 -132 27t-37 115v111q0 65 18 89.5t63 29.5q-35 6 -51 30t-17 78v77q0 90 32.5 119.5t123.5 29.5h16q92 0 125.5 -29.5t33.5 -119.5v-67q0 -60 -16.5 -86t-54.5 -32q43 -5 61 -30t18 -89v-111q0 -88 -37 -115t-132 -27h-14zM212 82q18 0 25 0.5t18.5 4.5
t16 15t4.5 30v136q0 36 -14 45.5t-45 9.5h-46q-20 -1 -30.5 -3.5t-18.5 -15t-8 -36.5v-136q0 -19 4.5 -30t16 -15t18.5 -4.5t25 -0.5h34zM209 618h-23q-22 0 -32 -2t-18.5 -14t-8.5 -37v-105q0 -18 3.5 -28.5t12 -15t15.5 -6t22 -1.5h33q21 1 30 2.5t17 13t8 35.5v105
q0 19 -3.5 30t-13 16t-17.5 6t-25 1z" />
    <glyph glyph-name="nine" unicode="9" horiz-adv-x="386" 
d="M200 274h-37q-43 0 -67 4.5t-43.5 20.5t-26.5 47.5t-7 84.5v125q0 90 33.5 118.5t125.5 28.5h21q89 0 123 -32t34 -115v-407q0 -91 -32 -121.5t-122 -30.5h-22q-91 0 -121 28t-30 119v50h90v-55q0 -36 14.5 -48.5t44.5 -12.5h24q30 0 44.5 12.5t14.5 48.5v149
q-23 -14 -61 -14zM173 355h42q25 0 35.5 9t10.5 40v165q0 25 -8.5 37t-19 14t-31.5 2h-29q-21 0 -31.5 -2t-19 -14t-8.5 -37v-158q0 -36 14.5 -46t44.5 -10z" />
    <glyph glyph-name="colon" unicode=":" horiz-adv-x="163" 
d="M39 0v122h86v-122h-86zM39 443v122h86v-122h-86z" />
    <glyph glyph-name="semicolon" unicode=";" horiz-adv-x="163" 
d="M38 0v122h87v-97q0 -43 -12 -69.5t-43 -66.5l-29 21q20 32 25 47.5t5 42.5h-33zM39 443v122h86v-122h-86z" />
    <glyph glyph-name="less" unicode="&#x3c;" horiz-adv-x="325" 
d="M304 457l-191 -96l191 -95v-79l-283 140v69l283 140v-79z" />
    <glyph glyph-name="equal" unicode="=" horiz-adv-x="335" 
d="M21 404v63h294v-63h-294zM21 244v63h294v-63h-294z" />
    <glyph glyph-name="greater" unicode="&#x3e;" horiz-adv-x="325" 
d="M212 361l-191 96v79l283 -140v-69l-283 -140v79z" />
    <glyph glyph-name="question" unicode="?" horiz-adv-x="391" 
d="M184 703h25q84 0 119 -29.5t35 -117.5v-61q0 -11 -1 -20t-4 -18t-4.5 -15t-8 -14.5t-8.5 -11.5t-11.5 -12t-11.5 -10.5t-14.5 -12t-14.5 -12.5q-12 -10 -28 -23t-21.5 -18t-13 -12t-9 -13.5t-3 -15t-1.5 -21.5v-57h-78v93q0 12 3 22t10.5 20t12.5 15.5t18.5 18t18.5 17.5
q6 6 21.5 20.5t19.5 19t13.5 15.5t12 18t5 18t2.5 24v59q0 19 -3.5 30t-13 16t-17.5 6t-25 1h-25q-31 0 -45 -10.5t-14 -46.5v-91h-95v82q0 88 35 117.5t119 29.5zM126 0v127h85v-127h-85z" />
    <glyph glyph-name="at" unicode="@" horiz-adv-x="538" 
d="M277 525q74 0 99 -25t25 -90v-296q0 -29 6.5 -39.5t29.5 -10.5q30 0 38 12t8 43v363q0 64 -23.5 91.5t-87.5 27.5h-206q-64 0 -87.5 -27.5t-23.5 -91.5v-408q0 -64 23.5 -91.5t87.5 -27.5h271v-22h-271q-75 0 -106 30t-31 111v408q0 81 31 111t106 30h206q76 0 106.5 -30
t30.5 -111v-368q0 -48 -17.5 -64.5t-54.5 -16.5q-53 0 -72 4t-40 21q-28 -22 -67 -22h-19q-110 0 -110 100v101q0 53 25 76.5t75 23.5h91v75q0 30 -10.5 38t-33.5 8h-14q-17 0 -24.5 -1.5t-14 -11t-6.5 -29.5v-46h-75v40q0 65 24 89.5t96 25.5h15zM249 107h14q32 0 57 19
v149h-71q-38 0 -38 -48v-78q0 -42 38 -42z" />
    <glyph glyph-name="A" unicode="A" horiz-adv-x="440" 
d="M300 700l135 -700h-100l-30 141h-171l-29 -141h-100l135 700h160zM214 621l-66 -385h143l-66 385h-11z" />
    <glyph glyph-name="B" unicode="B" horiz-adv-x="406" 
d="M37 0v700h177q90 0 122 -28t32 -113v-88q0 -57 -15 -82.5t-46 -31.5q33 -6 48.5 -30.5t15.5 -82.5v-102q0 -49 -7 -77t-27 -42.5t-45.5 -18.5t-74.5 -4h-180zM137 314v-229h80q28 0 41 9.5t13 41.5v128q0 31 -14 40.5t-43 9.5h-77zM137 615v-216h81q26 0 38 10t12 41v114
q0 32 -13 41.5t-41 9.5h-77z" />
    <glyph glyph-name="C" unicode="C" horiz-adv-x="408" 
d="M194 703h30q93 0 126 -29t33 -118v-127h-100v133q0 36 -14 46t-45 10h-30q-31 0 -45 -10t-14 -46v-424q0 -36 14 -46t45 -10h30q31 0 45 10t14 46v153h100v-147q0 -89 -33.5 -118t-125.5 -29h-30q-92 0 -125.5 29t-33.5 118v412q0 89 33.5 118t125.5 29z" />
    <glyph glyph-name="D" unicode="D" horiz-adv-x="410" 
d="M37 0v700h186q90 0 122 -28t32 -113v-417q0 -85 -32.5 -113.5t-121.5 -28.5h-186zM223 615h-85l-1 -530h86q28 0 41 10t13 42v430q0 22 -7.5 33t-17.5 13t-29 2z" />
    <glyph glyph-name="E" unicode="E" horiz-adv-x="352" 
d="M139 316v-231h191v-85h-291v700h291v-85h-191v-214h176v-85h-176z" />
    <glyph glyph-name="F" unicode="F" horiz-adv-x="337" 
d="M139 304v-304h-100v700h286v-85h-186v-226h171v-85h-171z" />
    <glyph glyph-name="G" unicode="G" horiz-adv-x="412" 
d="M194 703h28q92 0 125.5 -29t33.5 -118v-82h-100v88q0 36 -14.5 46t-44.5 10h-28q-30 0 -44.5 -10t-14.5 -46v-429q0 -25 8.5 -36.5t18 -13t32.5 -1.5h28q23 0 32.5 1.5t18 13t8.5 36.5v151h-77v85h177v-225q0 -89 -33.5 -118t-125.5 -29h-28q-92 0 -125.5 29t-33.5 118
v412q0 89 33.5 118t125.5 29z" />
    <glyph glyph-name="H" unicode="H" horiz-adv-x="423" 
d="M39 0v700h100v-299h146v299h100v-700h-100v306h-146v-306h-100z" />
    <glyph glyph-name="I" unicode="I" horiz-adv-x="178" 
d="M39 0v700h100v-700h-100z" />
    <glyph glyph-name="J" unicode="J" horiz-adv-x="267" 
d="M7 0v82h70q18 0 28.5 2.5t18 14t7.5 33.5v569h100v-543q0 -56 -7 -88.5t-27 -49.5t-46 -21t-74 -2z" />
    <glyph glyph-name="K" unicode="K" horiz-adv-x="416" 
d="M139 293v-293h-100v700h100v-312h63l93 312h105l-110 -352l120 -348h-110l-92 293h-69z" />
    <glyph glyph-name="L" unicode="L" horiz-adv-x="323" 
d="M39 0v700h100v-615h176v-85h-276z" />
    <glyph glyph-name="M" unicode="M" horiz-adv-x="555" 
d="M39 700h146l90 -501h4l90 501h147v-700h-103l5 479h-1l-90 -479h-98l-91 478h-2l5 -478h-102v700z" />
    <glyph glyph-name="N" unicode="N" horiz-adv-x="431" 
d="M39 700h106l149 -449h1v449h98v-700h-109l-140 435h-5v-435h-100v700z" />
    <glyph glyph-name="O" unicode="O" horiz-adv-x="421" 
d="M194 703h33q92 0 125.5 -29t33.5 -118v-412q0 -89 -33.5 -118t-125.5 -29h-33q-92 0 -125.5 29.5t-33.5 117.5v412q0 89 33.5 118t125.5 29zM196 82h29q31 0 46 10t15 46v424q0 36 -15 46t-46 10h-29q-31 0 -46 -10t-15 -46v-424q0 -36 15 -46t46 -10z" />
    <glyph glyph-name="P" unicode="P" horiz-adv-x="386" 
d="M37 0v700h184q87 0 118 -27.5t31 -108.5v-190q0 -82 -31 -109t-118 -27h-84v-238h-100zM217 615h-80v-292h80q17 0 27 2t18 13t8 31v200q0 20 -8 31t-18 13t-27 2z" />
    <glyph glyph-name="Q" unicode="Q" horiz-adv-x="421" 
d="M194 703h33q92 0 125.5 -29t33.5 -118v-412q0 -56 -12.5 -86.5t-40.5 -44.5l40 -96h-75l-48 81q-7 -1 -23 -1h-33q-92 0 -125.5 29.5t-33.5 117.5v412q0 89 33.5 118t125.5 29zM196 82h29q31 0 46 10t15 46v424q0 36 -15 46t-46 10h-29q-31 0 -46 -10t-15 -46v-424
q0 -36 15 -46t46 -10z" />
    <glyph glyph-name="R" unicode="R" horiz-adv-x="396" 
d="M37 0v700h189q87 0 118 -27t31 -109v-118q0 -99 -63 -109q33 -7 48 -33t15 -85v-219h-100v234q0 31 -13.5 43t-37.5 13h-87v-290h-100zM137 615v-240h89q13 0 20.5 1t14.5 5.5t10.5 14t3.5 25.5v150q0 20 -8 30.5t-17 12t-27 1.5h-86z" />
    <glyph glyph-name="S" unicode="S" horiz-adv-x="402" 
d="M189 703h21q93 0 126 -29t33 -118v-91h-100v99q0 36 -13.5 45t-45.5 9h-21q-16 0 -24.5 -1t-17.5 -6t-13 -16.5t-4 -30.5v-68q0 -20 3 -32t15.5 -21.5t21 -13t34.5 -13.5l69 -24q51 -19 75.5 -46.5t24.5 -90.5v-111q0 -89 -33.5 -118t-125.5 -29h-25q-92 0 -125.5 29
t-33.5 118v92h100v-99q0 -36 13.5 -45.5t45.5 -9.5h25q31 0 45 9.5t14 45.5v103q0 11 -1 19t-5 14t-6.5 10t-10.5 8.5t-12 6.5t-15 6.5t-16 6.5l-73 25q-27 11 -41.5 18.5t-31.5 22.5t-24 38t-7 56v85q0 89 33.5 118t125.5 29z" />
    <glyph glyph-name="T" unicode="T" horiz-adv-x="376" 
d="M238 615v-615h-100v615h-132v85h364v-85h-132z" />
    <glyph glyph-name="U" unicode="U" horiz-adv-x="421" 
d="M35 700h100v-559q0 -37 10.5 -48t38.5 -11h53q28 0 38.5 11t10.5 48v559h100v-556q0 -89 -33.5 -118t-125.5 -29h-33q-92 0 -125.5 29t-33.5 118v556z" />
    <glyph glyph-name="V" unicode="V" horiz-adv-x="457" 
d="M446 700l-130 -700h-175l-130 700h100l108 -591h18l109 591h100z" />
    <glyph glyph-name="W" unicode="W" horiz-adv-x="606" 
d="M9 700h103l62 -574h4l61 574h129l60 -574h4l63 574h103l-80 -700h-175l-37 469h-6l-36 -469h-175z" />
    <glyph glyph-name="X" unicode="X" horiz-adv-x="393" 
d="M381 700l-121 -346l126 -354h-100l-90 265l-89 -265h-100l126 354l-121 346h100l84 -255l85 255h100z" />
    <glyph glyph-name="Y" unicode="Y" horiz-adv-x="412" 
d="M156 0v274l-149 426h100l98 -309l99 309h101l-149 -426v-274h-100z" />
    <glyph glyph-name="Z" unicode="Z" horiz-adv-x="352" 
d="M27 614v86h305v-85l-208 -530h208v-85h-312v86l218 528h-211z" />
    <glyph glyph-name="bracketleft" unicode="[" horiz-adv-x="260" 
d="M126 663v-681h125v-72h-210v825h210v-72h-125z" />
    <glyph glyph-name="backslash" unicode="\" horiz-adv-x="253" 
d="M92 739l140 -775h-60l-141 775h61z" />
    <glyph glyph-name="bracketright" unicode="]" horiz-adv-x="260" 
d="M134 -18v681h-125v72h210v-825h-210v72h125z" />
    <glyph glyph-name="asciicircum" unicode="^" horiz-adv-x="425" 
d="M298 467l-85 165l-86 -165h-74l125 233h69l125 -233h-74z" />
    <glyph glyph-name="underscore" unicode="_" horiz-adv-x="423" 
d="M-4 -109v66h431v-66h-431z" />
    <glyph glyph-name="grave" unicode="`" horiz-adv-x="500" 
d="M263 696l40 -92h-64l-73 92h97z" />
    <glyph glyph-name="a" unicode="a" horiz-adv-x="378" 
d="M185 568h18q83 0 111 -28t28 -100v-435q-107 -8 -164 -8h-30q-118 0 -118 113v136q0 112 118 112h99v83q0 22 -6.5 32.5t-14.5 12.5t-25 2h-18q-13 0 -19 -1t-13.5 -4.5t-10.5 -13t-3 -25.5v-47h-88v43q0 73 26.5 100.5t109.5 27.5zM125 245v-120q0 -44 36 -44h86v205
h-86q-36 0 -36 -41z" />
    <glyph glyph-name="b" unicode="b" 
d="M36 0v720h95v-155h105q58 0 88 -25t30 -84v-346q0 -113 -118 -113h-31zM219 485h-88v-404h88q40 0 40 44v316q0 44 -40 44z" />
    <glyph glyph-name="c" unicode="c" horiz-adv-x="375" 
d="M177 568h31q84 0 113 -28t29 -100v-95h-95v94q0 29 -11.5 39t-35.5 10h-31q-24 0 -35.5 -10t-11.5 -39v-313q0 -29 11.5 -39t35.5 -10h31q24 0 35.5 10t11.5 39v104h95v-105q0 -71 -29 -99.5t-113 -28.5h-31q-84 0 -113 28.5t-29 99.5v315q0 72 29 100t113 28z" />
    <glyph glyph-name="d" unicode="d" 
d="M35 110v346q0 59 30 84t88 25h105v155h95v-720q-103 -3 -168 -3h-32q-118 0 -118 113zM258 81v404h-88q-40 0 -40 -44v-316q0 -44 40 -44h88z" />
    <glyph glyph-name="e" unicode="e" horiz-adv-x="383" 
d="M177 568h30q83 0 112.5 -28t29.5 -100v-196l-219 -2v-116q0 -29 11.5 -39t35.5 -10h35q24 0 35.5 10t11.5 39v52h90v-53q0 -71 -29 -99.5t-113 -28.5h-30q-84 0 -113 28.5t-29 99.5v315q0 72 29 100t113 28zM177 488q-24 0 -35.5 -10t-11.5 -39v-116h124v116
q0 29 -11.5 39t-35.5 10h-30z" />
    <glyph glyph-name="f" unicode="f" horiz-adv-x="231" 
d="M225 565v-80h-79v-485h-95v485h-41v80h41v35q0 68 24.5 89t97.5 21l55 -5v-75h-55q-27 0 -27 -32v-33h79z" />
    <glyph glyph-name="g" unicode="g" 
d="M35 446q0 60 35.5 91t92.5 31h23l167 -3v-565q0 -79 -27.5 -103.5t-114.5 -24.5h-28q-83 0 -110 30.5t-27 112.5v15h88v-35q0 -27 10 -35t32 -8h39q24 0 33.5 8.5t9.5 38.5v54h-105q-118 0 -118 112v281zM258 136v349h-88q-40 0 -40 -44v-261q0 -44 40 -44h88z" />
    <glyph glyph-name="h" unicode="h" 
d="M258 0v441q0 44 -40 44h-87v-485h-95v720h95v-155h104q58 0 88 -25t30 -84v-456h-95z" />
    <glyph glyph-name="i" unicode="i" horiz-adv-x="168" 
d="M37 0v565h95v-565h-95zM35 615v90h98v-90h-98z" />
    <glyph glyph-name="j" unicode="j" horiz-adv-x="167" 
d="M30 -119l-51 49q25 30 32.5 41t16 38t8.5 66v490h95v-500q0 -120 -101 -184zM35 615v90h98v-90h-98z" />
    <glyph glyph-name="k" unicode="k" horiz-adv-x="384" 
d="M283 0l-88 256h-64v-256h-95v720h95v-372h63l82 217h96l-99 -262l106 -303h-96z" />
    <glyph glyph-name="l" unicode="l" horiz-adv-x="167" 
d="M36 0v720h95v-720h-95z" />
    <glyph glyph-name="m" unicode="m" horiz-adv-x="600" 
d="M36 0v565l384 3h27q118 0 118 -112v-456h-95v441q0 44 -40 44h-82v-485h-95v461q0 18 -2.5 21t-17.5 3h-102v-485h-95z" />
    <glyph glyph-name="n" unicode="n" 
d="M258 0v441q0 44 -40 44h-87v-485h-95v565q95 3 168 3h31q118 0 118 -112v-456h-95z" />
    <glyph glyph-name="o" unicode="o" horiz-adv-x="387" 
d="M177 568h34q83 0 112.5 -28t29.5 -100v-315q0 -71 -29.5 -99.5t-112.5 -28.5h-34q-84 0 -113 28.5t-29 99.5v315q0 72 29 100t113 28zM177 77h34q24 0 35.5 10t11.5 39l1 314q0 29 -11.5 39t-35.5 10h-34q-24 0 -35.5 -10t-11.5 -39l-1 -314q0 -29 11.5 -39t35.5 -10z
" />
    <glyph glyph-name="p" unicode="p" 
d="M36 -120v685q79 3 168 3h32q56 0 87 -30.5t31 -91.5v-336q0 -113 -118 -113h-31l-74 3v-120h-95zM219 485h-88v-404h88q40 0 40 44v316q0 44 -40 44z" />
    <glyph glyph-name="q" unicode="q" 
d="M35 110v336q0 60 35.5 91t92.5 31h23l167 -3v-685h-95v120q-52 -3 -73 -3h-32q-118 0 -118 113zM258 81v404h-88q-40 0 -40 -44v-316q0 -44 40 -44h88z" />
    <glyph glyph-name="r" unicode="r" horiz-adv-x="273" 
d="M36 0v467q0 44 26 72.5t79 28.5h10l119 -6v-70q-70 -4 -99 -6q-26 -1 -32.5 -10t-7.5 -34v-442h-95z" />
    <glyph glyph-name="s" unicode="s" horiz-adv-x="345" 
d="M165 568h10q83 0 110 -27.5t27 -100.5v-45h-90v50q0 28 -10.5 35.5t-36.5 7.5h-10q-17 0 -25.5 -2t-15 -11.5t-6.5 -29.5v-45q0 -6 1 -11t2 -8.5t4.5 -7t5 -5.5t8 -5t8.5 -4.5t11 -5.5t12 -5l67 -26q44 -17 64.5 -39.5t20.5 -71.5v-81q0 -73 -29.5 -102.5t-112.5 -29.5
h-15q-84 0 -113 28t-29 100v52h95v-56q0 -28 11 -36t36 -8h15q24 0 35.5 9.5t11.5 38.5v69q0 8 -1.5 14t-2.5 10.5t-5.5 9t-6.5 7t-8.5 5.5t-8.5 4t-10 4.5t-10 4.5l-66 27q-23 9 -33 14.5t-25 17.5t-21 31t-6 47v49q0 72 29 100t113 28z" />
    <glyph glyph-name="t" unicode="t" horiz-adv-x="238" 
d="M226 565v-80h-79v-372q0 -32 27 -32h60v-81l-60 -3q-72 -2 -97 20.5t-25 90.5v377h-41v80h41v125h95v-125h79z" />
    <glyph glyph-name="u" unicode="u" horiz-adv-x="387" 
d="M129 565v-440q0 -44 40 -44h87v484h95v-565q-130 -3 -167 -3h-32q-118 0 -118 113v455h95z" />
    <glyph glyph-name="v" unicode="v" horiz-adv-x="376" 
d="M372 565l-110 -565h-148l-110 565h100l81 -447h6l81 447h100z" />
    <glyph glyph-name="w" unicode="w" horiz-adv-x="544" 
d="M309 0l-36 332h-3l-35 -332h-150l-81 565h100l55 -440h5l53 440h110l53 -440h4l56 440h100l-81 -565h-150z" />
    <glyph glyph-name="x" unicode="x" horiz-adv-x="363" 
d="M354 565l-97 -276l97 -289h-100l-72 222l-72 -222h-100l97 289l-97 276h100l72 -208l72 208h100z" />
    <glyph glyph-name="y" unicode="y" horiz-adv-x="373" 
d="M104 5l-107 560h103l79 -471h8l84 471h95l-126 -691h-91l24 131h-69z" />
    <glyph glyph-name="z" unicode="z" horiz-adv-x="334" 
d="M320 84v-84h-306v81l198 400h-193v84h299v-84l-196 -397h198z" />
    <glyph glyph-name="braceleft" unicode="{" horiz-adv-x="237" 
d="M8 284v51q1 1 9 5t15.5 9.5t16 14t13.5 22t5 29.5v171q0 59 31 98q27 35 70 66l34 -27q-3 -4 -18 -26t-20 -31q-12 -25 -12 -80v-171q0 -66 -58 -106q58 -40 58 -105v-178q0 -56 12 -81q4 -8 19.5 -30t18.5 -27l-34 -27q-40 29 -70 66q-31 39 -31 99v178q0 9 -1.5 17
t-4.5 14.5t-6 12t-8 10t-8.5 8t-9.5 7t-8.5 5l-7.5 4.5z" />
    <glyph glyph-name="bar" unicode="|" horiz-adv-x="236" 
d="M81 -70v830h75v-830h-75z" />
    <glyph glyph-name="braceright" unicode="}" horiz-adv-x="237" 
d="M228 335v-51l-5 -2l-7.5 -4.5t-8.5 -5t-9.5 -7t-8.5 -8t-8 -10t-6 -12t-4.5 -14.5t-1.5 -17v-178q0 -60 -31 -99q-30 -37 -70 -66l-34 27q3 5 18.5 27t19.5 30q12 25 12 81v178q0 65 58 105q-58 40 -58 106v171q0 55 -12 80q-5 9 -20 31t-18 26l34 27q43 -31 70 -66
q31 -39 31 -98v-171q0 -16 5 -29.5t13.5 -22t16 -14t15.5 -9.5t9 -5z" />
    <glyph glyph-name="asciitilde" unicode="~" horiz-adv-x="400" 
d="M258 312l-117 61l-1 -58h-53l1 101h54l117 -42l1 39h52l-1 -101h-53z" />
    <glyph glyph-name="uni00A0" unicode="&#xa0;" horiz-adv-x="135" 
 />
    <glyph glyph-name="exclamdown" unicode="&#xa1;" horiz-adv-x="173" 
d="M39 186l23 305h49l23 -305v-186h-95v186zM44 573v127h85v-127h-85z" />
    <glyph glyph-name="cent" unicode="&#xa2;" horiz-adv-x="355" 
d="M147 -77v76q-65 4 -88.5 32.5t-23.5 94.5v315q0 66 23.5 94.5t88.5 32.5v69h81v-69q71 -3 96.5 -31t25.5 -96v-95h-95v94q0 29 -11.5 39t-35.5 10h-31q-24 0 -35.5 -10t-11.5 -39v-313q0 -29 11.5 -39t35.5 -10h31q24 0 35.5 10t11.5 39v104h95v-105q0 -68 -25.5 -96.5
t-96.5 -30.5v-76h-81z" />
    <glyph glyph-name="sterling" unicode="&#xa3;" horiz-adv-x="416" 
d="M214 621q-31 0 -45 -10t-14 -46v-206h175v-80h-175v-199h246v-80h-390v80h44v199h-44v80h44v187q0 91 34.5 124t124.5 33h15q93 0 126 -29t33 -118v-97h-90v106q0 36 -14 46t-45 10h-25z" />
    <glyph glyph-name="yen" unicode="&#xa5;" horiz-adv-x="412" 
d="M40 286v48h95l-128 366h100l98 -309l99 309h101l-128 -366h92v-48h-109l-4 -12v-40h113v-48h-113v-186h-100v186h-116v48h116v40l-4 12h-112z" />
    <glyph glyph-name="section" unicode="&#xa7;" horiz-adv-x="424" 
d="M346 632h-155q-31 0 -45 -10t-14 -46v-9q0 -11 1.5 -19t6.5 -14t8.5 -9.5t13 -7t14 -5t17.5 -5t18 -4.5l86 -17q52 -9 75 -33.5t24 -78.5v-84q0 -42 -39 -71q20 -29 20 -85v-5q0 -44 -11 -71.5t-34.5 -40t-48.5 -16.5t-65 -4l-160 3v68h160q25 0 37 1.5t24.5 14.5
t12.5 40v10q0 12 -3.5 21.5t-7.5 15t-15 10t-15.5 6.5t-20.5 5.5t-21 4.5l-86 17q-52 9 -75.5 33.5t-23.5 78.5v82q0 47 37 74q-19 32 -19 85v4q0 75 41 103.5t118 28.5l145 -3v-68zM174 430q-50 9 -65 22q-8 -13 -8 -24v-82q0 -7 0.5 -12.5t0.5 -10t2 -7.5t2.5 -5.5
t4.5 -4.5t5.5 -3.5t7.5 -3t8.5 -2t11.5 -2.5t13 -3l86 -20q54 -12 67 -24q8 11 8 25v81q0 34 -11.5 43.5t-51.5 15.5z" />
    <glyph glyph-name="dieresis" unicode="&#xa8;" horiz-adv-x="500" 
d="M158 612v84h64v-84h-64zM278 612v84h64v-84h-64z" />
    <glyph glyph-name="copyright" unicode="&#xa9;" horiz-adv-x="524" 
d="M186 700h152q150 0 150 -141v-417q0 -142 -150 -142h-152q-149 0 -149 142v417q0 141 149 141zM186 16h152q132 0 132 126v417q0 126 -132 126h-152q-131 0 -131 -126v-417q0 -126 131 -126zM244 610h34q67 0 91.5 -25.5t24.5 -95.5v-87h-74v103q0 19 -6.5 29t-14.5 11.5
t-25 1.5h-24q-16 0 -23 -1t-14.5 -11t-7.5 -30v-312q0 -27 11 -36t34 -9h24q24 0 35 8.5t11 36.5v116h74v-103q0 -69 -24.5 -95t-91.5 -26h-34q-65 0 -89 28t-24 98v273q0 71 23.5 98.5t89.5 27.5z" />
    <glyph glyph-name="ordfeminine" unicode="&#xaa;" horiz-adv-x="255" 
d="M137 654h-14q-14 0 -20 -5t-6 -23v-26h-54v26q0 41 17 58.5t62 18.5h16q50 0 67 -16.5t17 -60.5v-260q-36 -5 -87 -5h-18q-82 0 -82 67v86q0 38 18.5 52.5t53.5 14.5h57v44q0 19 -6.5 24t-20.5 5zM221 314v-55h-188v55h188zM115 412h49v125h-49q-22 0 -22 -29v-71
q0 -25 22 -25z" />
    <glyph glyph-name="guillemotleft" unicode="&#xab;" horiz-adv-x="306" 
d="M220 111l-85 169v11l85 170h68l-73 -170v-11l73 -169h-68zM11 280v11l95 170h64l-78 -170v-11l78 -169h-64z" />
    <glyph glyph-name="registered" unicode="&#xae;" horiz-adv-x="352" 
d="M212 300h-72q-53 0 -78 21t-25 78v203q0 57 25 77.5t78 20.5h72q53 0 78.5 -20.5t25.5 -77.5v-203q0 -57 -25.5 -78t-78.5 -21zM140 311h72q49 0 70.5 18.5t21.5 69.5v203q0 51 -22 69t-70 18h-72q-47 0 -69 -18t-22 -69v-203q0 -50 21.5 -69t69.5 -19zM153 472v-103h-42
v265h74q36 0 49.5 -11.5t13.5 -45.5v-43q0 -24 -7 -33.5t-25 -11.5q18 -3 25 -13t7 -33v-74h-42v78q0 25 -18 25h-35zM185 598h-32v-90h35q18 0 18 20v49q0 21 -21 21z" />
    <glyph glyph-name="macron" unicode="&#xaf;" horiz-adv-x="500" 
d="M147 622v56h206v-56h-206z" />
    <glyph glyph-name="degree" unicode="&#xb0;" horiz-adv-x="256" 
d="M110 703h37q55 0 70.5 -22.5t15.5 -77.5v-131q0 -55 -16 -77.5t-70 -22.5h-37q-54 0 -70 22.5t-16 77.5v131q0 55 15.5 77.5t70.5 22.5zM145 651h-33q-20 0 -25 -8t-5 -29v-152q0 -22 5 -29.5t25 -7.5h33q20 0 25 7.5t5 29.5v152q0 21 -5 29t-25 8z" />
    <glyph glyph-name="plusminus" unicode="&#xb1;" horiz-adv-x="335" 
d="M21 395v66h113v113h66v-113h115v-66h-115v-115h-66v115h-113zM21 160v66h294v-66h-294z" />
    <glyph glyph-name="acute" unicode="&#xb4;" horiz-adv-x="500" 
d="M196 604l41 92h97l-74 -92h-64z" />
    <glyph glyph-name="paragraph" unicode="&#xb6;" horiz-adv-x="435" 
d="M194 0v320h-72q-43 0 -66 30t-23 69v182q0 40 22.5 69.5t66.5 29.5h274v-700h-58v633h-86v-633h-58z" />
    <glyph glyph-name="periodcentered" unicode="&#xb7;" horiz-adv-x="176" 
d="M45 267v122h86v-122h-86z" />
    <glyph glyph-name="cedilla" unicode="&#xb8;" horiz-adv-x="500" 
d="M281 0l-25 -118h-72l43 118h54z" />
    <glyph glyph-name="ordmasculine" unicode="&#xba;" horiz-adv-x="263" 
d="M120 703h23q50 0 67.5 -19t17.5 -63v-179q0 -44 -17.5 -62.5t-67.5 -18.5h-23q-49 0 -67 19t-18 62v179q0 44 18 63t67 19zM120 412h23q14 0 20.5 5.5t6.5 22.5v183q0 17 -6.5 22.5t-20.5 5.5h-23q-13 0 -19.5 -5.5t-6.5 -22.5v-183q0 -17 6.5 -22.5t19.5 -5.5zM35 259
v55h193v-55h-193z" />
    <glyph glyph-name="guillemotright" unicode="&#xbb;" horiz-adv-x="306" 
d="M172 280l-85 -169h-69l73 169v11l-73 170h69l85 -170v-11zM295 291v-11l-95 -169h-63l78 169v11l-78 170h63z" />
    <glyph glyph-name="questiondown" unicode="&#xbf;" horiz-adv-x="356" 
d="M182 -3h-25q-84 0 -119 29.5t-35 117.5v61q0 11 1 20t4 18t4.5 15t8 14.5t8.5 11.5t11.5 12t11.5 10.5t14.5 12t14.5 12.5q12 10 28 23t21.5 18t13 12t9 13.5t3 15t1.5 21.5v57h78v-93q0 -12 -3 -22t-10.5 -20t-12.5 -15.5t-18.5 -18t-18.5 -17.5q-6 -6 -21.5 -20.5
t-19.5 -19t-13.5 -15.5t-12 -18t-5 -18t-2.5 -24v-59q0 -19 3.5 -30t13 -16t17.5 -6t25 -1h25q31 0 45 10.5t14 46.5v91h95v-82q0 -88 -35 -117.5t-119 -29.5zM240 700v-127h-85v127h85z" />
    <glyph glyph-name="Agrave" unicode="&#xc0;" horiz-adv-x="407" 
d="M284 700l135 -700h-100l-30 141h-171l-29 -141h-100l135 700h160zM198 621l-66 -385h143l-66 385h-11zM197 831l40 -92h-64l-73 92h97z" />
    <glyph glyph-name="Aacute" unicode="&#xc1;" horiz-adv-x="407" 
d="M284 700l135 -700h-100l-30 141h-171l-29 -141h-100l135 700h160zM198 621l-66 -385h143l-66 385h-11zM165 739l41 92h97l-74 -92h-64z" />
    <glyph glyph-name="Acircumflex" unicode="&#xc2;" horiz-adv-x="407" 
d="M284 700l135 -700h-100l-30 141h-171l-29 -141h-100l135 700h160zM198 621l-66 -385h143l-66 385h-11zM93 739l65 92h92l65 -92h-64l-47 52l-47 -52h-64z" />
    <glyph glyph-name="Atilde" unicode="&#xc3;" horiz-adv-x="407" 
d="M284 700l135 -700h-100l-30 141h-171l-29 -141h-100l135 700h160zM198 621l-66 -385h143l-66 385h-11zM253 744l-97 50l-3 -48h-43l2 84h44l97 -35l3 34h43l-2 -85h-44z" />
    <glyph glyph-name="Adieresis" unicode="&#xc4;" horiz-adv-x="407" 
d="M284 700l135 -700h-100l-30 141h-171l-29 -141h-100l135 700h160zM198 621l-66 -385h143l-66 385h-11zM112 747v84h64v-84h-64zM232 747v84h64v-84h-64z" />
    <glyph glyph-name="Aring" unicode="&#xc5;" horiz-adv-x="407" 
d="M284 700l135 -700h-100l-30 141h-171l-29 -141h-100l135 700h160zM198 621l-66 -385h143l-66 385h-11zM194 860h19q38 0 50.5 -13t12.5 -48v-14q0 -35 -12.5 -48t-50.5 -13h-19q-38 0 -50.5 13t-12.5 48v14q0 35 12.5 48t50.5 13zM211 829h-15q-21 0 -26 -4.5t-5 -22.5
v-19q0 -19 5.5 -23.5t25.5 -4.5h15q21 0 26.5 5t5.5 23v19q0 18 -5 22.5t-27 4.5z" />
    <glyph glyph-name="AE" unicode="&#xc6;" horiz-adv-x="629" 
d="M316 0v151h-158l-48 -151h-99l231 700h365v-85h-191v-214h176v-86h-176v-229h191v-86h-291zM301 615l-117 -379h132v379h-15z" />
    <glyph glyph-name="Ccedilla" unicode="&#xc7;" horiz-adv-x="388" 
d="M194 703h30q93 0 126 -29t33 -118v-127h-100v133q0 36 -14 46t-45 10h-30q-31 0 -45 -10t-14 -46v-424q0 -36 14 -46t45 -10h30q31 0 45 10t14 46v153h100v-147q0 -86 -31 -115.5t-115 -31.5l-24 -115h-72l42 115q-85 2 -116.5 31.5t-31.5 115.5v412q0 89 33.5 118
t125.5 29z" />
    <glyph glyph-name="Egrave" unicode="&#xc8;" horiz-adv-x="352" 
d="M139 316v-231h191v-85h-291v700h291v-85h-191v-214h176v-85h-176zM198 831l40 -92h-64l-73 92h97z" />
    <glyph glyph-name="Eacute" unicode="&#xc9;" horiz-adv-x="352" 
d="M135 739l41 92h97l-74 -92h-64zM139 316v-231h191v-85h-291v700h291v-85h-191v-214h176v-85h-176z" />
    <glyph glyph-name="Ecircumflex" unicode="&#xca;" horiz-adv-x="352" 
d="M73 739l65 92h92l65 -92h-64l-47 52l-47 -52h-64zM139 316v-231h191v-85h-291v700h291v-85h-191v-214h176v-85h-176z" />
    <glyph glyph-name="Edieresis" unicode="&#xcb;" horiz-adv-x="352" 
d="M97 747v84h64v-84h-64zM217 747v84h64v-84h-64zM139 316v-231h191v-85h-291v700h291v-85h-191v-214h176v-85h-176z" />
    <glyph glyph-name="Igrave" unicode="&#xcc;" horiz-adv-x="178" 
d="M39 0v700h100v-700h-100zM85 831l40 -92h-64l-73 92h97z" />
    <glyph glyph-name="Iacute" unicode="&#xcd;" horiz-adv-x="178" 
d="M39 0v700h100v-700h-100zM54 739l41 92h97l-74 -92h-64z" />
    <glyph glyph-name="Icircumflex" unicode="&#xce;" horiz-adv-x="178" 
d="M39 0v700h100v-700h-100zM-22 739l65 92h92l65 -92h-64l-47 52l-47 -52h-64z" />
    <glyph glyph-name="Idieresis" unicode="&#xcf;" horiz-adv-x="178" 
d="M39 0v700h100v-700h-100zM-3 747v84h64v-84h-64zM117 747v84h64v-84h-64z" />
    <glyph glyph-name="Eth" unicode="&#xd0;" horiz-adv-x="424" 
d="M2 322v70h49v308h186q90 0 122 -28t32 -113v-417q0 -85 -32.5 -113.5t-121.5 -28.5h-186v322h-49zM237 615h-85l-1 -223h59v-70h-59v-237h86q28 0 41 10t13 42v430q0 22 -7.5 33t-17.5 13t-29 2z" />
    <glyph glyph-name="Ntilde" unicode="&#xd1;" horiz-adv-x="431" 
d="M39 700h106l149 -449h1v449h98v-700h-109l-140 435h-5v-435h-100v700zM263 744l-97 50l-3 -48h-43l2 84h44l97 -35l3 34h43l-2 -85h-44z" />
    <glyph glyph-name="Ograve" unicode="&#xd2;" horiz-adv-x="421" 
d="M194 703h33q92 0 125.5 -29t33.5 -118v-412q0 -89 -33.5 -118t-125.5 -29h-33q-92 0 -125.5 29.5t-33.5 117.5v412q0 89 33.5 118t125.5 29zM196 82h29q31 0 46 10t15 46v424q0 36 -15 46t-46 10h-29q-31 0 -46 -10t-15 -46v-424q0 -36 15 -46t46 -10zM210 831l40 -92
h-64l-73 92h97z" />
    <glyph glyph-name="Oacute" unicode="&#xd3;" horiz-adv-x="421" 
d="M167 739l41 92h97l-74 -92h-64zM194 703h33q92 0 125.5 -29t33.5 -118v-412q0 -89 -33.5 -118t-125.5 -29h-33q-92 0 -125.5 29.5t-33.5 117.5v412q0 89 33.5 118t125.5 29zM196 82h29q31 0 46 10t15 46v424q0 36 -15 46t-46 10h-29q-31 0 -46 -10t-15 -46v-424
q0 -36 15 -46t46 -10z" />
    <glyph glyph-name="Ocircumflex" unicode="&#xd4;" horiz-adv-x="421" 
d="M100 739l65 92h92l65 -92h-64l-47 52l-47 -52h-64zM194 703h33q92 0 125.5 -29t33.5 -118v-412q0 -89 -33.5 -118t-125.5 -29h-33q-92 0 -125.5 29.5t-33.5 117.5v412q0 89 33.5 118t125.5 29zM196 82h29q31 0 46 10t15 46v424q0 36 -15 46t-46 10h-29q-31 0 -46 -10
t-15 -46v-424q0 -36 15 -46t46 -10z" />
    <glyph glyph-name="Otilde" unicode="&#xd5;" horiz-adv-x="421" 
d="M194 703h33q92 0 125.5 -29t33.5 -118v-412q0 -89 -33.5 -118t-125.5 -29h-33q-92 0 -125.5 29.5t-33.5 117.5v412q0 89 33.5 118t125.5 29zM196 82h29q31 0 46 10t15 46v424q0 36 -15 46t-46 10h-29q-31 0 -46 -10t-15 -46v-424q0 -36 15 -46t46 -10zM259 744l-97 50
l-3 -48h-43l2 84h44l97 -35l3 34h43l-2 -85h-44z" />
    <glyph glyph-name="Odieresis" unicode="&#xd6;" horiz-adv-x="421" 
d="M119 747v84h64v-84h-64zM239 747v84h64v-84h-64zM194 703h33q92 0 125.5 -29t33.5 -118v-412q0 -89 -33.5 -118t-125.5 -29h-33q-92 0 -125.5 29.5t-33.5 117.5v412q0 89 33.5 118t125.5 29zM196 82h29q31 0 46 10t15 46v424q0 36 -15 46t-46 10h-29q-31 0 -46 -10
t-15 -46v-424q0 -36 15 -46t46 -10z" />
    <glyph glyph-name="multiply" unicode="&#xd7;" horiz-adv-x="325" 
d="M249 491l47 -46l-87 -87l84 -84l-46 -47l-85 84l-86 -85l-46 47l86 85l-84 85l47 46l83 -84z" />
    <glyph glyph-name="Oslash" unicode="&#xd8;" horiz-adv-x="421" 
d="M194 703h33q56 0 85 -8l17 45h54l-27 -70q30 -31 30 -114v-412q0 -89 -33.5 -118t-125.5 -29h-33q-54 0 -88 9l-16 -42h-53l27 67q-29 32 -29 113v412q0 89 33.5 118t125.5 29zM135 562v-356l141 396q-13 16 -51 16h-29q-31 0 -46 -10t-15 -46zM196 82h29q31 0 46 10
t15 46v342l-137 -387q12 -11 47 -11z" />
    <glyph glyph-name="Ugrave" unicode="&#xd9;" horiz-adv-x="421" 
d="M35 700h100v-559q0 -37 10.5 -48t38.5 -11h53q28 0 38.5 11t10.5 48v559h100v-556q0 -89 -33.5 -118t-125.5 -29h-33q-92 0 -125.5 29t-33.5 118v556zM220 831l40 -92h-64l-73 92h97z" />
    <glyph glyph-name="Uacute" unicode="&#xda;" horiz-adv-x="421" 
d="M170 739l41 92h97l-74 -92h-64zM35 700h100v-559q0 -37 10.5 -48t38.5 -11h53q28 0 38.5 11t10.5 48v559h100v-556q0 -89 -33.5 -118t-125.5 -29h-33q-92 0 -125.5 29t-33.5 118v556z" />
    <glyph glyph-name="Ucircumflex" unicode="&#xdb;" horiz-adv-x="421" 
d="M100 739l65 92h92l65 -92h-64l-47 52l-47 -52h-64zM35 700h100v-559q0 -37 10.5 -48t38.5 -11h53q28 0 38.5 11t10.5 48v559h100v-556q0 -89 -33.5 -118t-125.5 -29h-33q-92 0 -125.5 29t-33.5 118v556z" />
    <glyph glyph-name="Udieresis" unicode="&#xdc;" horiz-adv-x="421" 
d="M119 747v84h64v-84h-64zM239 747v84h64v-84h-64zM35 700h100v-559q0 -37 10.5 -48t38.5 -11h53q28 0 38.5 11t10.5 48v559h100v-556q0 -89 -33.5 -118t-125.5 -29h-33q-92 0 -125.5 29t-33.5 118v556z" />
    <glyph glyph-name="Yacute" unicode="&#xdd;" horiz-adv-x="412" 
d="M156 0v274l-149 426h100l98 -309l99 309h101l-149 -426v-274h-100zM167 739l41 92h97l-74 -92h-64z" />
    <glyph glyph-name="Thorn" unicode="&#xde;" horiz-adv-x="386" 
d="M37 0v700h100v-118h84q87 0 118 -27.5t31 -108.5v-185q0 -82 -31 -109t-118 -27h-84v-125h-100zM221 498h-84v-289h84q24 0 36.5 10.5t12.5 40.5v187q0 30 -12.5 40.5t-36.5 10.5z" />
    <glyph glyph-name="germandbls" unicode="&#xdf;" horiz-adv-x="418" 
d="M202 620q-28 0 -41 -9t-13 -41v-570h-95v496l-48 10v59h51v27q0 52 34.5 80t86.5 28h45q90 0 122 -28t32 -113v-73q0 -58 -17 -82.5t-60 -30.5q49 -4 69 -28t20 -86v-117q0 -49 -7 -77t-27 -42.5t-45.5 -18.5t-74.5 -4h-51v75h56q27 0 40.5 11.5t13.5 44.5v143
q0 32 -14.5 43.5t-41.5 11.5h-54v85h44q27 0 40.5 11.5t13.5 44.5v100q0 32 -13 41t-41 9h-25z" />
    <glyph glyph-name="agrave" unicode="&#xe0;" horiz-adv-x="378" 
d="M185 568h18q83 0 111 -28t28 -100v-435q-107 -8 -164 -8h-30q-118 0 -118 113v136q0 112 118 112h99v83q0 22 -6.5 32.5t-14.5 12.5t-25 2h-18q-13 0 -19 -1t-13.5 -4.5t-10.5 -13t-3 -25.5v-47h-88v43q0 73 26.5 100.5t109.5 27.5zM125 245v-120q0 -44 36 -44h86v205
h-86q-36 0 -36 -41zM198 696l40 -92h-64l-73 92h97z" />
    <glyph glyph-name="aacute" unicode="&#xe1;" horiz-adv-x="378" 
d="M185 568h18q83 0 111 -28t28 -100v-435q-107 -8 -164 -8h-30q-118 0 -118 113v136q0 112 118 112h99v83q0 22 -6.5 32.5t-14.5 12.5t-25 2h-18q-13 0 -19 -1t-13.5 -4.5t-10.5 -13t-3 -25.5v-47h-88v43q0 73 26.5 100.5t109.5 27.5zM125 245v-120q0 -44 36 -44h86v205
h-86q-36 0 -36 -41zM151 604l41 92h97l-74 -92h-64z" />
    <glyph glyph-name="acircumflex" unicode="&#xe2;" horiz-adv-x="378" 
d="M185 568h18q83 0 111 -28t28 -100v-435q-107 -8 -164 -8h-30q-118 0 -118 113v136q0 112 118 112h99v83q0 22 -6.5 32.5t-14.5 12.5t-25 2h-18q-13 0 -19 -1t-13.5 -4.5t-10.5 -13t-3 -25.5v-47h-88v43q0 73 26.5 100.5t109.5 27.5zM125 245v-120q0 -44 36 -44h86v205
h-86q-36 0 -36 -41zM81 604l65 92h92l65 -92h-64l-47 52l-47 -52h-64z" />
    <glyph glyph-name="atilde" unicode="&#xe3;" horiz-adv-x="378" 
d="M185 568h18q83 0 111 -28t28 -100v-435q-107 -8 -164 -8h-30q-118 0 -118 113v136q0 112 118 112h99v83q0 22 -6.5 32.5t-14.5 12.5t-25 2h-18q-13 0 -19 -1t-13.5 -4.5t-10.5 -13t-3 -25.5v-47h-88v43q0 73 26.5 100.5t109.5 27.5zM125 245v-120q0 -44 36 -44h86v205
h-86q-36 0 -36 -41zM240 609l-97 50l-3 -48h-43l2 84h44l97 -35l3 34h43l-2 -85h-44z" />
    <glyph glyph-name="adieresis" unicode="&#xe4;" horiz-adv-x="378" 
d="M185 568h18q83 0 111 -28t28 -100v-435q-107 -8 -164 -8h-30q-118 0 -118 113v136q0 112 118 112h99v83q0 22 -6.5 32.5t-14.5 12.5t-25 2h-18q-13 0 -19 -1t-13.5 -4.5t-10.5 -13t-3 -25.5v-47h-88v43q0 73 26.5 100.5t109.5 27.5zM125 245v-120q0 -44 36 -44h86v205
h-86q-36 0 -36 -41zM98 612v84h64v-84h-64zM218 612v84h64v-84h-64z" />
    <glyph glyph-name="aring" unicode="&#xe5;" horiz-adv-x="378" 
d="M185 568h18q83 0 111 -28t28 -100v-435q-107 -8 -164 -8h-30q-118 0 -118 113v136q0 112 118 112h99v83q0 22 -6.5 32.5t-14.5 12.5t-25 2h-18q-13 0 -19 -1t-13.5 -4.5t-10.5 -13t-3 -25.5v-47h-88v43q0 73 26.5 100.5t109.5 27.5zM125 245v-120q0 -44 36 -44h86v205
h-86q-36 0 -36 -41zM177 733h19q38 0 50.5 -13t12.5 -48v-14q0 -35 -12.5 -48t-50.5 -13h-19q-38 0 -50.5 13t-12.5 48v14q0 35 12.5 48t50.5 13zM194 702h-15q-21 0 -26 -4.5t-5 -22.5v-19q0 -19 5.5 -23.5t25.5 -4.5h15q21 0 26.5 5t5.5 23v19q0 18 -5 22.5t-27 4.5z" />
    <glyph glyph-name="ae" unicode="&#xe6;" horiz-adv-x="600" 
d="M394 568h30q83 0 112.5 -28t29.5 -100v-206l-219 -2v-109q0 -29 11.5 -39t35.5 -10h40q24 0 35.5 10t11.5 39v55h85v-53q0 -71 -28.5 -99t-110.5 -29h-33q-58 0 -86 7.5t-40 34.5q-3 -2 -12 -9.5t-15.5 -11.5t-16.5 -10t-21.5 -8.5t-24.5 -2.5h-30q-118 0 -118 113v126
q0 112 118 112h104v95q-1 28 -12 37t-32 9h-39q-19 -2 -28 -12t-9 -37v-43h-83v43q0 71 26 99t105 29h28q70 0 92 -33q23 33 94 33zM252 111v162h-87q-19 0 -29.5 -14.5t-10.5 -35.5v-98q0 -44 40 -44h24q24 0 63 30zM394 492q-23 0 -35 -9t-12 -35v-139h124v134
q0 29 -11.5 39t-35.5 10h-30z" />
    <glyph glyph-name="ccedilla" unicode="&#xe7;" horiz-adv-x="355" 
d="M177 568h31q84 0 113 -28t29 -100v-95h-95v94q0 29 -11.5 39t-35.5 10h-31q-24 0 -35.5 -10t-11.5 -39v-313q0 -29 11.5 -39t35.5 -10h31q24 0 35.5 10t11.5 39v104h95v-105q0 -70 -27.5 -98.5t-105.5 -29.5l-24 -115h-72l42 115q-75 2 -101.5 30.5t-26.5 97.5v315
q0 72 29 100t113 28z" />
    <glyph glyph-name="egrave" unicode="&#xe8;" horiz-adv-x="383" 
d="M177 568h30q83 0 112.5 -28t29.5 -100v-196l-219 -2v-116q0 -29 11.5 -39t35.5 -10h35q24 0 35.5 10t11.5 39v52h90v-53q0 -71 -29 -99.5t-113 -28.5h-30q-84 0 -113 28.5t-29 99.5v315q0 72 29 100t113 28zM177 488q-24 0 -35.5 -10t-11.5 -39v-116h124v116
q0 29 -11.5 39t-35.5 10h-30zM191 696l40 -92h-64l-73 92h97z" />
    <glyph glyph-name="eacute" unicode="&#xe9;" horiz-adv-x="383" 
d="M158 604l41 92h97l-74 -92h-64zM177 568h30q83 0 112.5 -28t29.5 -100v-196l-219 -2v-116q0 -29 11.5 -39t35.5 -10h35q24 0 35.5 10t11.5 39v52h90v-53q0 -71 -29 -99.5t-113 -28.5h-30q-84 0 -113 28.5t-29 99.5v315q0 72 29 100t113 28zM177 488q-24 0 -35.5 -10
t-11.5 -39v-116h124v116q0 29 -11.5 39t-35.5 10h-30z" />
    <glyph glyph-name="ecircumflex" unicode="&#xea;" horiz-adv-x="383" 
d="M81 604l65 92h92l65 -92h-64l-47 52l-47 -52h-64zM177 568h30q83 0 112.5 -28t29.5 -100v-196l-219 -2v-116q0 -29 11.5 -39t35.5 -10h35q24 0 35.5 10t11.5 39v52h90v-53q0 -71 -29 -99.5t-113 -28.5h-30q-84 0 -113 28.5t-29 99.5v315q0 72 29 100t113 28zM177 488
q-24 0 -35.5 -10t-11.5 -39v-116h124v116q0 29 -11.5 39t-35.5 10h-30z" />
    <glyph glyph-name="edieresis" unicode="&#xeb;" horiz-adv-x="383" 
d="M100 612v84h64v-84h-64zM220 612v84h64v-84h-64zM177 568h30q83 0 112.5 -28t29.5 -100v-196l-219 -2v-116q0 -29 11.5 -39t35.5 -10h35q24 0 35.5 10t11.5 39v52h90v-53q0 -71 -29 -99.5t-113 -28.5h-30q-84 0 -113 28.5t-29 99.5v315q0 72 29 100t113 28zM177 488
q-24 0 -35.5 -10t-11.5 -39v-116h124v116q0 29 -11.5 39t-35.5 10h-30z" />
    <glyph glyph-name="igrave" unicode="&#xec;" horiz-adv-x="168" 
d="M37 0v565h95v-565h-95zM78 696l40 -92h-64l-73 92h97z" />
    <glyph glyph-name="iacute" unicode="&#xed;" horiz-adv-x="168" 
d="M50 604l41 92h97l-74 -92h-64zM37 0v565h95v-565h-95z" />
    <glyph glyph-name="icircumflex" unicode="&#xee;" horiz-adv-x="168" 
d="M-26 604l65 92h92l65 -92h-64l-47 52l-47 -52h-64zM37 0v565h95v-565h-95z" />
    <glyph glyph-name="idieresis" unicode="&#xef;" horiz-adv-x="168" 
d="M-7 612v84h64v-84h-64zM113 612v84h64v-84h-64zM37 0v565h95v-565h-95z" />
    <glyph glyph-name="eth" unicode="&#xf0;" horiz-adv-x="387" 
d="M211 -3h-34q-84 0 -113 27t-29 98v334q0 112 118 112h32q10 0 73 -3v5q0 48 -8 63l-66 -25l-17 38l64 24q-12 16 -51 53l63 22q48 -36 58 -46l59 22l17 -38l-50 -19q26 -37 26 -89v-453q0 -71 -29 -98t-113 -27zM177 76h34q24 0 35.5 10t11.5 39v360h-88q-40 0 -40 -44
v-316q0 -29 11.5 -39t35.5 -10z" />
    <glyph glyph-name="ntilde" unicode="&#xf1;" 
d="M258 0v441q0 44 -40 44h-87v-485h-95v565q95 3 168 3h31q118 0 118 -112v-456h-95zM241 609l-97 50l-3 -48h-43l2 84h44l97 -35l3 34h43l-2 -85h-44z" />
    <glyph glyph-name="ograve" unicode="&#xf2;" horiz-adv-x="387" 
d="M177 568h34q83 0 112.5 -28t29.5 -100v-315q0 -71 -29.5 -99.5t-112.5 -28.5h-34q-84 0 -113 28.5t-29 99.5v315q0 72 29 100t113 28zM177 77h34q24 0 35.5 10t11.5 39l1 314q0 29 -11.5 39t-35.5 10h-34q-24 0 -35.5 -10t-11.5 -39l-1 -314q0 -29 11.5 -39t35.5 -10z
M203 696l40 -92h-64l-73 92h97z" />
    <glyph glyph-name="oacute" unicode="&#xf3;" horiz-adv-x="387" 
d="M156 604l41 92h97l-74 -92h-64zM177 568h34q83 0 112.5 -28t29.5 -100v-315q0 -71 -29.5 -99.5t-112.5 -28.5h-34q-84 0 -113 28.5t-29 99.5v315q0 72 29 100t113 28zM177 77h34q24 0 35.5 10t11.5 39l1 314q0 29 -11.5 39t-35.5 10h-34q-24 0 -35.5 -10t-11.5 -39
l-1 -314q0 -29 11.5 -39t35.5 -10z" />
    <glyph glyph-name="ocircumflex" unicode="&#xf4;" horiz-adv-x="387" 
d="M83 604l65 92h92l65 -92h-64l-47 52l-47 -52h-64zM177 568h34q83 0 112.5 -28t29.5 -100v-315q0 -71 -29.5 -99.5t-112.5 -28.5h-34q-84 0 -113 28.5t-29 99.5v315q0 72 29 100t113 28zM177 77h34q24 0 35.5 10t11.5 39l1 314q0 29 -11.5 39t-35.5 10h-34
q-24 0 -35.5 -10t-11.5 -39l-1 -314q0 -29 11.5 -39t35.5 -10z" />
    <glyph glyph-name="otilde" unicode="&#xf5;" horiz-adv-x="387" 
d="M177 568h34q83 0 112.5 -28t29.5 -100v-315q0 -71 -29.5 -99.5t-112.5 -28.5h-34q-84 0 -113 28.5t-29 99.5v315q0 72 29 100t113 28zM177 77h34q24 0 35.5 10t11.5 39l1 314q0 29 -11.5 39t-35.5 10h-34q-24 0 -35.5 -10t-11.5 -39l-1 -314q0 -29 11.5 -39t35.5 -10z
M243 609l-97 50l-3 -48h-43l2 84h44l97 -35l3 34h43l-2 -85h-44z" />
    <glyph glyph-name="odieresis" unicode="&#xf6;" horiz-adv-x="387" 
d="M102 612v84h64v-84h-64zM222 612v84h64v-84h-64zM177 568h34q83 0 112.5 -28t29.5 -100v-315q0 -71 -29.5 -99.5t-112.5 -28.5h-34q-84 0 -113 28.5t-29 99.5v315q0 72 29 100t113 28zM177 77h34q24 0 35.5 10t11.5 39l1 314q0 29 -11.5 39t-35.5 10h-34q-24 0 -35.5 -10
t-11.5 -39l-1 -314q0 -29 11.5 -39t35.5 -10z" />
    <glyph glyph-name="divide" unicode="&#xf7;" horiz-adv-x="331" 
d="M21 326v66h294v-66h-294zM137 442v79h64v-79h-64zM137 196v79h64v-79h-64z" />
    <glyph glyph-name="oslash" unicode="&#xf8;" horiz-adv-x="387" 
d="M177 568h34q33 0 61 -5l18 45h50l-27 -60q40 -27 40 -108v-315q0 -71 -29.5 -99.5t-112.5 -28.5h-34q-45 0 -75 8l-18 -37h-49l27 59q-27 27 -27 98v315q0 72 29 100t113 28zM177 77h34q24 0 35.5 10t11.5 39l1 285l-120 -322q10 -12 38 -12zM131 440l-1 -248l108 293
q-9 4 -26 4h-34q-24 0 -35.5 -10t-11.5 -39z" />
    <glyph glyph-name="ugrave" unicode="&#xf9;" horiz-adv-x="387" 
d="M129 565v-440q0 -44 40 -44h87v484h95v-565q-130 -3 -167 -3h-32q-118 0 -118 113v455h95zM203 696l40 -92h-64l-73 92h97z" />
    <glyph glyph-name="uacute" unicode="&#xfa;" horiz-adv-x="387" 
d="M129 565v-440q0 -44 40 -44h87v484h95v-565q-130 -3 -167 -3h-32q-118 0 -118 113v455h95zM150 604l41 92h97l-74 -92h-64z" />
    <glyph glyph-name="ucircumflex" unicode="&#xfb;" horiz-adv-x="387" 
d="M129 565v-440q0 -44 40 -44h87v484h95v-565q-130 -3 -167 -3h-32q-118 0 -118 113v455h95zM82 604l65 92h92l65 -92h-64l-47 52l-47 -52h-64z" />
    <glyph glyph-name="udieresis" unicode="&#xfc;" horiz-adv-x="387" 
d="M129 565v-440q0 -44 40 -44h87v484h95v-565q-130 -3 -167 -3h-32q-118 0 -118 113v455h95zM102 612v84h64v-84h-64zM222 612v84h64v-84h-64z" />
    <glyph glyph-name="yacute" unicode="&#xfd;" horiz-adv-x="373" 
d="M104 5l-107 560h103l79 -471h8l84 471h95l-126 -691h-91l24 131h-69zM148 604l41 92h97l-74 -92h-64z" />
    <glyph glyph-name="thorn" unicode="&#xfe;" 
d="M36 -120v821h95v-136h115q55 0 81.5 -28.5t26.5 -90.5v-316q0 -64 -27 -98.5t-81 -34.5h-31l-84 3v-120h-95zM219 485h-88v-404h88q40 0 40 44v316q0 44 -40 44z" />
    <glyph glyph-name="ydieresis" unicode="&#xff;" horiz-adv-x="373" 
d="M104 5l-107 560h103l79 -471h8l84 471h95l-126 -691h-91l24 131h-69zM91 612v84h64v-84h-64zM211 612v84h64v-84h-64z" />
    <glyph glyph-name="Amacron" unicode="&#x100;" horiz-adv-x="407" 
d="M284 700l135 -700h-100l-30 141h-171l-29 -141h-100l135 700h160zM198 621l-66 -385h143l-66 385h-11zM101 757v56h206v-56h-206z" />
    <glyph glyph-name="amacron" unicode="&#x101;" horiz-adv-x="378" 
d="M185 568h18q83 0 111 -28t28 -100v-435q-107 -8 -164 -8h-30q-118 0 -118 113v136q0 112 118 112h99v83q0 22 -6.5 32.5t-14.5 12.5t-25 2h-18q-13 0 -19 -1t-13.5 -4.5t-10.5 -13t-3 -25.5v-47h-88v43q0 73 26.5 100.5t109.5 27.5zM125 245v-120q0 -44 36 -44h86v205
h-86q-36 0 -36 -41zM92 622v56h206v-56h-206z" />
    <glyph glyph-name="Abreve" unicode="&#x102;" horiz-adv-x="407" 
d="M284 700l135 -700h-100l-30 141h-171l-29 -141h-100l135 700h160zM198 621l-66 -385h143l-66 385h-11zM223 737h-38q-51 0 -69 18t-18 68v11h58v-17q0 -32 31 -32h34q31 0 31 32v17h57v-11q0 -50 -18 -68t-68 -18z" />
    <glyph glyph-name="abreve" unicode="&#x103;" horiz-adv-x="378" 
d="M185 568h18q83 0 111 -28t28 -100v-435q-107 -8 -164 -8h-30q-118 0 -118 113v136q0 112 118 112h99v83q0 22 -6.5 32.5t-14.5 12.5t-25 2h-18q-13 0 -19 -1t-13.5 -4.5t-10.5 -13t-3 -25.5v-47h-88v43q0 73 26.5 100.5t109.5 27.5zM125 245v-120q0 -44 36 -44h86v205
h-86q-36 0 -36 -41zM214 602h-38q-51 0 -69 18t-18 68v11h58v-17q0 -32 31 -32h34q31 0 31 32v17h57v-11q0 -50 -18 -68t-68 -18z" />
    <glyph glyph-name="Aogonek" unicode="&#x104;" horiz-adv-x="407" 
d="M413 -51v-15q0 -34 -9.5 -48.5t-41.5 -14.5h-50q-34 0 -45.5 11.5t-11.5 41.5v12q0 22 7.5 31t29.5 22q7 2 26 13l-29 139h-171l-29 -141h-100l135 700h160l135 -700h-42l-43 -26q-4 -2 -9.5 -6t-7.5 -5.5t-5 -4t-4 -4.5t-1.5 -4.5t-0.5 -6.5v-7q0 -9 0.5 -12.5t4 -6
t10.5 -2.5h29q11 0 12.5 3t1.5 15v16h49zM198 621l-66 -385h143l-66 385h-11z" />
    <glyph glyph-name="aogonek" unicode="&#x105;" horiz-adv-x="378" 
d="M342 -41v-15q0 -34 -9.5 -48.5t-41.5 -14.5h-50q-34 0 -45.5 11.5t-11.5 41.5v12q0 22 7 31t27 21q-8 0 -21 -0.5t-19 -0.5h-30q-118 0 -118 113v136q0 112 118 112h99v83q0 22 -6.5 32.5t-14.5 12.5t-25 2h-18q-13 0 -19 -1t-13.5 -4.5t-10.5 -13t-3 -25.5v-47h-88v43
q0 73 26.5 100.5t109.5 27.5h18q83 0 111 -28t28 -100v-435q-23 -2 -50 -4l-29 -17q-4 -2 -9.5 -6t-7.5 -5.5t-5 -4t-4 -4.5t-1.5 -4.5t-0.5 -6.5v-7q0 -9 0.5 -12.5t4 -6t10.5 -2.5h29q11 0 12.5 3t1.5 15v16h49zM125 245v-120q0 -44 36 -44h86v205h-86q-36 0 -36 -41z" />
    <glyph glyph-name="Cacute" unicode="&#x106;" horiz-adv-x="388" 
d="M181 739l41 92h97l-74 -92h-64zM194 703h30q93 0 126 -29t33 -118v-127h-100v133q0 36 -14 46t-45 10h-30q-31 0 -45 -10t-14 -46v-424q0 -36 14 -46t45 -10h30q31 0 45 10t14 46v153h100v-147q0 -89 -33.5 -118t-125.5 -29h-30q-92 0 -125.5 29t-33.5 118v412
q0 89 33.5 118t125.5 29z" />
    <glyph glyph-name="cacute" unicode="&#x107;" horiz-adv-x="355" 
d="M166 604l41 92h97l-74 -92h-64zM177 568h31q84 0 113 -28t29 -100v-95h-95v94q0 29 -11.5 39t-35.5 10h-31q-24 0 -35.5 -10t-11.5 -39v-313q0 -29 11.5 -39t35.5 -10h31q24 0 35.5 10t11.5 39v104h95v-105q0 -71 -29 -99.5t-113 -28.5h-31q-84 0 -113 28.5t-29 99.5v315
q0 72 29 100t113 28z" />
    <glyph glyph-name="Cdotaccent" unicode="&#x10a;" horiz-adv-x="388" 
d="M194 703h30q93 0 126 -29t33 -118v-127h-100v133q0 36 -14 46t-45 10h-30q-31 0 -45 -10t-14 -46v-424q0 -36 14 -46t45 -10h30q31 0 45 10t14 46v153h100v-147q0 -89 -33.5 -118t-125.5 -29h-30q-92 0 -125.5 29t-33.5 118v412q0 89 33.5 118t125.5 29zM179 753v79h62
v-79h-62z" />
    <glyph glyph-name="cdotaccent" unicode="&#x10b;" horiz-adv-x="355" 
d="M177 568h31q84 0 113 -28t29 -100v-95h-95v94q0 29 -11.5 39t-35.5 10h-31q-24 0 -35.5 -10t-11.5 -39v-313q0 -29 11.5 -39t35.5 -10h31q24 0 35.5 10t11.5 39v104h95v-105q0 -71 -29 -99.5t-113 -28.5h-31q-84 0 -113 28.5t-29 99.5v315q0 72 29 100t113 28zM162 618
v79h62v-79h-62z" />
    <glyph glyph-name="Ccaron" unicode="&#x10c;" horiz-adv-x="388" 
d="M164 739l-65 92h64l47 -52l47 52h64l-65 -92h-92zM194 703h30q93 0 126 -29t33 -118v-127h-100v133q0 36 -14 46t-45 10h-30q-31 0 -45 -10t-14 -46v-424q0 -36 14 -46t45 -10h30q31 0 45 10t14 46v153h100v-147q0 -89 -33.5 -118t-125.5 -29h-30q-92 0 -125.5 29
t-33.5 118v412q0 89 33.5 118t125.5 29z" />
    <glyph glyph-name="ccaron" unicode="&#x10d;" horiz-adv-x="355" 
d="M147 604l-65 92h64l47 -52l47 52h64l-65 -92h-92zM177 568h31q84 0 113 -28t29 -100v-95h-95v94q0 29 -11.5 39t-35.5 10h-31q-24 0 -35.5 -10t-11.5 -39v-313q0 -29 11.5 -39t35.5 -10h31q24 0 35.5 10t11.5 39v104h95v-105q0 -71 -29 -99.5t-113 -28.5h-31
q-84 0 -113 28.5t-29 99.5v315q0 72 29 100t113 28z" />
    <glyph glyph-name="Dcaron" unicode="&#x10e;" horiz-adv-x="410" 
d="M159 739l-65 92h64l47 -52l47 52h64l-65 -92h-92zM37 0v700h186q90 0 122 -28t32 -113v-417q0 -85 -32.5 -113.5t-121.5 -28.5h-186zM223 615h-85l-1 -530h86q28 0 41 10t13 42v430q0 22 -7.5 33t-17.5 13t-29 2z" />
    <glyph glyph-name="dcaron" unicode="&#x10f;" horiz-adv-x="392" 
d="M35 110v346q0 59 30 84t88 25h105v155h95v-720q-103 -3 -168 -3h-32q-118 0 -118 113zM258 81v404h-88q-40 0 -40 -44v-316q0 -44 40 -44h88zM381 638v82h54v-73q0 -19 -6 -35.5t-11.5 -25t-21.5 -28.5l-23 11q5 10 11 20t8.5 15t4.5 13.5t2 20.5h-18z" />
    <glyph glyph-name="Dcroat" unicode="&#x110;" horiz-adv-x="424" 
d="M2 322v70h49v308h186q90 0 122 -28t32 -113v-417q0 -85 -32.5 -113.5t-121.5 -28.5h-186v322h-49zM237 615h-85l-1 -223h59v-70h-59v-237h86q28 0 41 10t13 42v430q0 22 -7.5 33t-17.5 13t-29 2z" />
    <glyph glyph-name="dcroat" unicode="&#x111;" horiz-adv-x="395" 
d="M177 629v45h81v46h95v-46h33v-45h-33v-629q-103 -3 -168 -3h-32q-118 0 -118 113v346q0 59 30 84t88 25h105v64h-81zM258 81v404h-88q-40 0 -40 -44v-316q0 -44 40 -44h88z" />
    <glyph glyph-name="Emacron" unicode="&#x112;" horiz-adv-x="352" 
d="M80 757v56h206v-56h-206zM139 316v-231h191v-85h-291v700h291v-85h-191v-214h176v-85h-176z" />
    <glyph glyph-name="emacron" unicode="&#x113;" horiz-adv-x="383" 
d="M177 568h30q83 0 112.5 -28t29.5 -100v-196l-219 -2v-116q0 -29 11.5 -39t35.5 -10h35q24 0 35.5 10t11.5 39v52h90v-53q0 -71 -29 -99.5t-113 -28.5h-30q-84 0 -113 28.5t-29 99.5v315q0 72 29 100t113 28zM177 488q-24 0 -35.5 -10t-11.5 -39v-116h124v116
q0 29 -11.5 39t-35.5 10h-30zM89 622v56h206v-56h-206z" />
    <glyph glyph-name="Ebreve" unicode="&#x114;" horiz-adv-x="352" 
d="M139 316v-231h191v-85h-291v700h291v-85h-191v-214h176v-85h-176zM204 737h-38q-51 0 -69 18t-18 68v11h58v-17q0 -32 31 -32h34q31 0 31 32v17h57v-11q0 -50 -18 -68t-68 -18z" />
    <glyph glyph-name="ebreve" unicode="&#x115;" horiz-adv-x="383" 
d="M177 568h30q83 0 112.5 -28t29.5 -100v-196l-219 -2v-116q0 -29 11.5 -39t35.5 -10h35q24 0 35.5 10t11.5 39v52h90v-53q0 -71 -29 -99.5t-113 -28.5h-30q-84 0 -113 28.5t-29 99.5v315q0 72 29 100t113 28zM177 488q-24 0 -35.5 -10t-11.5 -39v-116h124v116
q0 29 -11.5 39t-35.5 10h-30zM211 602h-38q-51 0 -69 18t-18 68v11h58v-17q0 -32 31 -32h34q31 0 31 32v17h57v-11q0 -50 -18 -68t-68 -18z" />
    <glyph glyph-name="Edotaccent" unicode="&#x116;" horiz-adv-x="352" 
d="M139 316v-231h191v-85h-291v700h291v-85h-191v-214h176v-85h-176zM155 753v79h62v-79h-62z" />
    <glyph glyph-name="edotaccent" unicode="&#x117;" horiz-adv-x="383" 
d="M177 568h30q83 0 112.5 -28t29.5 -100v-196l-219 -2v-116q0 -29 11.5 -39t35.5 -10h35q24 0 35.5 10t11.5 39v52h90v-53q0 -71 -29 -99.5t-113 -28.5h-30q-84 0 -113 28.5t-29 99.5v315q0 72 29 100t113 28zM177 488q-24 0 -35.5 -10t-11.5 -39v-116h124v116
q0 29 -11.5 39t-35.5 10h-30zM161 618v79h62v-79h-62z" />
    <glyph glyph-name="Eogonek" unicode="&#x118;" horiz-adv-x="352" 
d="M139 316v-231h191v-91l-50 -30q-4 -2 -9.5 -6t-7.5 -5.5t-5 -4t-4 -4.5t-1.5 -4.5t-0.5 -6.5v-7q0 -9 0.5 -12.5t4 -6t10.5 -2.5h29q11 0 12.5 3t1.5 15v16h49v-15q0 -34 -9.5 -48.5t-41.5 -14.5h-50q-34 0 -45.5 11.5t-11.5 41.5v12q0 22 7.5 31t29.5 22l41 21h-240v700
h291v-85h-191v-214h176v-85h-176z" />
    <glyph glyph-name="eogonek" unicode="&#x119;" horiz-adv-x="383" 
d="M177 568h30q83 0 112.5 -28t29.5 -100v-196l-219 -2v-116q0 -29 11.5 -39t35.5 -10h35q24 0 35.5 10t11.5 39v52h90v-53q0 -62 -21.5 -90.5t-78.5 -35.5l-50 -30q-4 -2 -9.5 -6t-7.5 -5.5t-5 -4t-4 -4.5t-1.5 -4.5t-0.5 -6.5v-7q0 -9 0.5 -12.5t4 -6t10.5 -2.5h29
q11 0 12.5 3t1.5 15v16h49v-15q0 -34 -9.5 -48.5t-41.5 -14.5h-50q-34 0 -45.5 11.5t-11.5 41.5v12q0 22 7.5 31t29.5 22q3 1 27 13h-7q-84 0 -113 28.5t-29 99.5v315q0 72 29 100t113 28zM177 488q-24 0 -35.5 -10t-11.5 -39v-116h124v116q0 29 -11.5 39t-35.5 10h-30z" />
    <glyph glyph-name="Ecaron" unicode="&#x11a;" horiz-adv-x="352" 
d="M141 739l-65 92h64l47 -52l47 52h64l-65 -92h-92zM139 316v-231h191v-85h-291v700h291v-85h-191v-214h176v-85h-176z" />
    <glyph glyph-name="ecaron" unicode="&#x11b;" horiz-adv-x="383" 
d="M146 604l-65 92h64l47 -52l47 52h64l-65 -92h-92zM177 568h30q83 0 112.5 -28t29.5 -100v-196l-219 -2v-116q0 -29 11.5 -39t35.5 -10h35q24 0 35.5 10t11.5 39v52h90v-53q0 -71 -29 -99.5t-113 -28.5h-30q-84 0 -113 28.5t-29 99.5v315q0 72 29 100t113 28zM177 488
q-24 0 -35.5 -10t-11.5 -39v-116h124v116q0 29 -11.5 39t-35.5 10h-30z" />
    <glyph glyph-name="gcircumflex" unicode="&#x11d;" 
d="M35 446q0 60 35.5 91t92.5 31h23l167 -3v-565q0 -79 -27.5 -103.5t-114.5 -24.5h-28q-83 0 -110 30.5t-27 112.5v15h88v-35q0 -27 10 -35t32 -8h39q24 0 33.5 8.5t9.5 38.5v54h-105q-118 0 -118 112v281zM258 136v349h-88q-40 0 -40 -44v-261q0 -44 40 -44h88zM89 604
l65 92h92l65 -92h-64l-47 52l-47 -52h-64z" />
    <glyph glyph-name="Gbreve" unicode="&#x11e;" horiz-adv-x="412" 
d="M194 703h28q92 0 125.5 -29t33.5 -118v-82h-100v88q0 36 -14.5 46t-44.5 10h-28q-30 0 -44.5 -10t-14.5 -46v-429q0 -25 8.5 -36.5t18 -13t32.5 -1.5h28q23 0 32.5 1.5t18 13t8.5 36.5v151h-77v85h177v-225q0 -89 -33.5 -118t-125.5 -29h-28q-92 0 -125.5 29t-33.5 118
v412q0 89 33.5 118t125.5 29zM226 737h-38q-51 0 -69 18t-18 68v11h58v-17q0 -32 31 -32h34q31 0 31 32v17h57v-11q0 -50 -18 -68t-68 -18z" />
    <glyph glyph-name="gbreve" unicode="&#x11f;" 
d="M35 446q0 60 35.5 91t92.5 31h23l167 -3v-565q0 -79 -27.5 -103.5t-114.5 -24.5h-28q-83 0 -110 30.5t-27 112.5v15h88v-35q0 -27 10 -35t32 -8h39q24 0 33.5 8.5t9.5 38.5v54h-105q-118 0 -118 112v281zM258 136v349h-88q-40 0 -40 -44v-261q0 -44 40 -44h88zM214 602
h-38q-51 0 -69 18t-18 68v11h58v-17q0 -32 31 -32h34q31 0 31 32v17h57v-11q0 -50 -18 -68t-68 -18z" />
    <glyph glyph-name="Gdotaccent" unicode="&#x120;" horiz-adv-x="412" 
d="M194 703h28q92 0 125.5 -29t33.5 -118v-82h-100v88q0 36 -14.5 46t-44.5 10h-28q-30 0 -44.5 -10t-14.5 -46v-429q0 -25 8.5 -36.5t18 -13t32.5 -1.5h28q23 0 32.5 1.5t18 13t8.5 36.5v151h-77v85h177v-225q0 -89 -33.5 -118t-125.5 -29h-28q-92 0 -125.5 29t-33.5 118
v412q0 89 33.5 118t125.5 29zM176 753v79h62v-79h-62z" />
    <glyph glyph-name="gdotaccent" unicode="&#x121;" 
d="M35 446q0 60 35.5 91t92.5 31h23l167 -3v-565q0 -79 -27.5 -103.5t-114.5 -24.5h-28q-83 0 -110 30.5t-27 112.5v15h88v-35q0 -27 10 -35t32 -8h39q24 0 33.5 8.5t9.5 38.5v54h-105q-118 0 -118 112v281zM258 136v349h-88q-40 0 -40 -44v-261q0 -44 40 -44h88zM164 618
v79h62v-79h-62z" />
    <glyph glyph-name="Gcommaaccent" unicode="&#x122;" horiz-adv-x="412" 
d="M175 -125v88h64v-78q0 -30 -8.5 -50t-30.5 -50l-27 14l9.5 19t7 14.5t3.5 10.5t2.5 13.5t0.5 18.5h-21zM194 703h28q92 0 125.5 -29t33.5 -118v-82h-100v88q0 36 -14.5 46t-44.5 10h-28q-30 0 -44.5 -10t-14.5 -46v-429q0 -25 8.5 -36.5t18 -13t32.5 -1.5h28
q23 0 32.5 1.5t18 13t8.5 36.5v151h-77v85h177v-225q0 -89 -33.5 -118t-125.5 -29h-28q-92 0 -125.5 29t-33.5 118v412q0 89 33.5 118t125.5 29z" />
    <glyph glyph-name="gcommaaccent" unicode="&#x123;" 
d="M35 446q0 60 35.5 91t92.5 31h23l167 -3v-565q0 -79 -27.5 -103.5t-114.5 -24.5h-28q-83 0 -110 30.5t-27 112.5v15h88v-35q0 -27 10 -35t32 -8h39q24 0 33.5 8.5t9.5 38.5v54h-105q-118 0 -118 112v281zM258 136v349h-88q-40 0 -40 -44v-261q0 -44 40 -44h88zM229 696
v-88h-64v78q0 30 8.5 50t30.5 50l27 -14l-9.5 -19t-7 -14.5t-3.5 -10.5t-2.5 -13.5t-0.5 -18.5h21z" />
    <glyph glyph-name="Hbar" unicode="&#x126;" horiz-adv-x="434" 
d="M1 537v65h43v98h100v-98h146v98h100v-98h43v-65h-43v-537h-100v306h-146v-306h-100v537h-43zM144 401h146v136h-146v-136z" />
    <glyph glyph-name="hbar" unicode="&#x127;" horiz-adv-x="394" 
d="M1 602v55h40v63h95v-63h88v-55h-88v-37h104q58 0 88 -25t30 -84v-456h-95v441q0 44 -40 44h-87v-485h-95v602h-40z" />
    <glyph glyph-name="Imacron" unicode="&#x12a;" horiz-adv-x="178" 
d="M39 0v700h100v-700h-100zM-14 757v56h206v-56h-206z" />
    <glyph glyph-name="imacron" unicode="&#x12b;" horiz-adv-x="168" 
d="M37 0v565h95v-565h-95zM-18 622v56h206v-56h-206z" />
    <glyph glyph-name="Ibreve" unicode="&#x12c;" horiz-adv-x="178" 
d="M39 0v700h100v-700h-100zM109 737h-38q-51 0 -69 18t-18 68v11h58v-17q0 -32 31 -32h34q31 0 31 32v17h57v-11q0 -50 -18 -68t-68 -18z" />
    <glyph glyph-name="ibreve" unicode="&#x12d;" horiz-adv-x="168" 
d="M37 0v565h95v-565h-95zM104 602h-38q-51 0 -69 18t-18 68v11h58v-17q0 -32 31 -32h34q31 0 31 32v17h57v-11q0 -50 -18 -68t-68 -18z" />
    <glyph glyph-name="Iogonek" unicode="&#x12e;" horiz-adv-x="178" 
d="M39 0v700h100v-700h-18l-50 -30q-4 -2 -9.5 -6t-7.5 -5.5t-5 -4t-4 -4.5t-1.5 -4.5t-0.5 -6.5v-7q0 -9 0.5 -12.5t4 -6t10.5 -2.5h29q11 0 12.5 3t1.5 15v16h49v-15q0 -34 -9.5 -48.5t-41.5 -14.5h-50q-34 0 -45.5 11.5t-11.5 41.5v12q0 22 7.5 31t29.5 22l30 15h-20z
" />
    <glyph glyph-name="iogonek" unicode="&#x12f;" horiz-adv-x="168" 
d="M37 0v565h95v-565h-11l-50 -30q-4 -2 -9.5 -6t-7.5 -5.5t-5 -4t-4 -4.5t-1.5 -4.5t-0.5 -6.5v-7q0 -9 0.5 -12.5t4 -6t10.5 -2.5h29q11 0 12.5 3t1.5 15v16h49v-15q0 -34 -9.5 -48.5t-41.5 -14.5h-50q-34 0 -45.5 11.5t-11.5 41.5v12q0 22 7.5 31t29.5 22l30 15h-22z
M35 615v90h98v-90h-98z" />
    <glyph glyph-name="Idotaccent" unicode="&#x130;" horiz-adv-x="178" 
d="M39 0v700h100v-700h-100zM58 753v79h62v-79h-62z" />
    <glyph glyph-name="dotlessi" unicode="&#x131;" horiz-adv-x="168" 
d="M37 0v565h95v-565h-95z" />
    <glyph glyph-name="Kcommaaccent" unicode="&#x136;" horiz-adv-x="416" 
d="M175 -125v88h64v-78q0 -30 -8.5 -50t-30.5 -50l-27 14l9.5 19t7 14.5t3.5 10.5t2.5 13.5t0.5 18.5h-21zM139 293v-293h-100v700h100v-312h63l93 312h105l-110 -352l120 -348h-110l-92 293h-69z" />
    <glyph glyph-name="kcommaaccent" unicode="&#x137;" horiz-adv-x="384" 
d="M157 -125v88h64v-78q0 -30 -8.5 -50t-30.5 -50l-27 14l9.5 19t7 14.5t3.5 10.5t2.5 13.5t0.5 18.5h-21zM283 0l-88 256h-64v-256h-95v720h95v-372h63l82 217h96l-99 -262l106 -303h-96z" />
    <glyph glyph-name="Lacute" unicode="&#x139;" horiz-adv-x="323" 
d="M52 739l41 92h97l-74 -92h-64zM39 0v700h100v-615h176v-85h-276z" />
    <glyph glyph-name="lacute" unicode="&#x13a;" horiz-adv-x="167" 
d="M50 744l41 92h97l-74 -92h-64zM36 0v720h95v-720h-95z" />
    <glyph glyph-name="Lcommaaccent" unicode="&#x13b;" horiz-adv-x="323" 
d="M140 -125v88h64v-78q0 -30 -8.5 -50t-30.5 -50l-27 14l9.5 19t7 14.5t3.5 10.5t2.5 13.5t0.5 18.5h-21zM39 0v700h100v-615h176v-85h-276z" />
    <glyph glyph-name="lcommaaccent" unicode="&#x13c;" horiz-adv-x="167" 
d="M52 -125v88h64v-78q0 -30 -8.5 -50t-30.5 -50l-27 14l9.5 19t7 14.5t3.5 10.5t2.5 13.5t0.5 18.5h-21zM36 0v720h95v-720h-95z" />
    <glyph glyph-name="Lcaron" unicode="&#x13d;" horiz-adv-x="323" 
d="M226 618v82h54v-73q0 -19 -6 -35.5t-11.5 -25t-21.5 -28.5l-23 11q5 10 11 20t8.5 15t4.5 13.5t2 20.5h-18zM39 0v700h100v-615h176v-85h-276z" />
    <glyph glyph-name="lcaron" unicode="&#x13e;" horiz-adv-x="167" 
d="M178 638v82h54v-73q0 -19 -6 -35.5t-11.5 -25t-21.5 -28.5l-23 11q5 10 11 20t8.5 15t4.5 13.5t2 20.5h-18zM36 0v720h95v-720h-95z" />
    <glyph glyph-name="Ldot" unicode="&#x13f;" horiz-adv-x="323" 
d="M39 0v700h100v-615h176v-85h-276zM200 321v79h62v-79h-62z" />
    <glyph glyph-name="ldot" unicode="&#x140;" horiz-adv-x="231" 
d="M36 0v720h95v-720h-95zM161 320v79h62v-79h-62z" />
    <glyph glyph-name="Lslash" unicode="&#x141;" horiz-adv-x="335" 
d="M3 260v84l49 25v331h100v-280l75 39v-84l-75 -39v-251h176v-85h-276v285z" />
    <glyph glyph-name="lslash" unicode="&#x142;" horiz-adv-x="179" 
d="M0 280v84l41 22v334h95v-284l43 23v-94l-43 -21v-344h-95v299z" />
    <glyph glyph-name="Nacute" unicode="&#x143;" horiz-adv-x="431" 
d="M187 739l41 92h97l-74 -92h-64zM39 700h106l149 -449h1v449h98v-700h-109l-140 435h-5v-435h-100v700z" />
    <glyph glyph-name="nacute" unicode="&#x144;" 
d="M258 0v441q0 44 -40 44h-87v-485h-95v565q95 3 168 3h31q118 0 118 -112v-456h-95zM146 604l41 92h97l-74 -92h-64z" />
    <glyph glyph-name="Ncommaaccent" unicode="&#x145;" horiz-adv-x="431" 
d="M177 -125v88h64v-78q0 -30 -8.5 -50t-30.5 -50l-27 14l9.5 19t7 14.5t3.5 10.5t2.5 13.5t0.5 18.5h-21zM39 700h106l149 -449h1v449h98v-700h-109l-140 435h-5v-435h-100v700z" />
    <glyph glyph-name="ncommaaccent" unicode="&#x146;" 
d="M258 0v441q0 44 -40 44h-87v-485h-95v565q95 3 168 3h31q118 0 118 -112v-456h-95zM163 -125v88h64v-78q0 -30 -8.5 -50t-30.5 -50l-27 14l9.5 19t7 14.5t3.5 10.5t2.5 13.5t0.5 18.5h-21z" />
    <glyph glyph-name="Ncaron" unicode="&#x147;" horiz-adv-x="431" 
d="M170 739l-65 92h64l47 -52l47 52h64l-65 -92h-92zM39 700h106l149 -449h1v449h98v-700h-109l-140 435h-5v-435h-100v700z" />
    <glyph glyph-name="ncaron" unicode="&#x148;" 
d="M258 0v441q0 44 -40 44h-87v-485h-95v565q95 3 168 3h31q118 0 118 -112v-456h-95zM149 604l-65 92h64l47 -52l47 52h64l-65 -92h-92z" />
    <glyph glyph-name="Omacron" unicode="&#x14c;" horiz-adv-x="421" 
d="M108 757v56h206v-56h-206zM194 703h33q92 0 125.5 -29t33.5 -118v-412q0 -89 -33.5 -118t-125.5 -29h-33q-92 0 -125.5 29.5t-33.5 117.5v412q0 89 33.5 118t125.5 29zM196 82h29q31 0 46 10t15 46v424q0 36 -15 46t-46 10h-29q-31 0 -46 -10t-15 -46v-424q0 -36 15 -46
t46 -10z" />
    <glyph glyph-name="omacron" unicode="&#x14d;" horiz-adv-x="387" 
d="M91 622v56h206v-56h-206zM177 568h34q83 0 112.5 -28t29.5 -100v-315q0 -71 -29.5 -99.5t-112.5 -28.5h-34q-84 0 -113 28.5t-29 99.5v315q0 72 29 100t113 28zM177 77h34q24 0 35.5 10t11.5 39l1 314q0 29 -11.5 39t-35.5 10h-34q-24 0 -35.5 -10t-11.5 -39l-1 -314
q0 -29 11.5 -39t35.5 -10z" />
    <glyph glyph-name="Obreve" unicode="&#x14e;" horiz-adv-x="421" 
d="M194 703h33q92 0 125.5 -29t33.5 -118v-412q0 -89 -33.5 -118t-125.5 -29h-33q-92 0 -125.5 29.5t-33.5 117.5v412q0 89 33.5 118t125.5 29zM196 82h29q31 0 46 10t15 46v424q0 36 -15 46t-46 10h-29q-31 0 -46 -10t-15 -46v-424q0 -36 15 -46t46 -10zM230 737h-38
q-51 0 -69 18t-18 68v11h58v-17q0 -32 31 -32h34q31 0 31 32v17h57v-11q0 -50 -18 -68t-68 -18z" />
    <glyph glyph-name="obreve" unicode="&#x14f;" horiz-adv-x="387" 
d="M177 568h34q83 0 112.5 -28t29.5 -100v-315q0 -71 -29.5 -99.5t-112.5 -28.5h-34q-84 0 -113 28.5t-29 99.5v315q0 72 29 100t113 28zM177 77h34q24 0 35.5 10t11.5 39l1 314q0 29 -11.5 39t-35.5 10h-34q-24 0 -35.5 -10t-11.5 -39l-1 -314q0 -29 11.5 -39t35.5 -10z
M214 602h-38q-51 0 -69 18t-18 68v11h58v-17q0 -32 31 -32h34q31 0 31 32v17h57v-11q0 -50 -18 -68t-68 -18z" />
    <glyph glyph-name="Ohungarumlaut" unicode="&#x150;" horiz-adv-x="421" 
d="M128 739l61 92h82l-79 -92h-64zM228 739l61 92h97l-94 -92h-64zM194 703h33q92 0 125.5 -29t33.5 -118v-412q0 -89 -33.5 -118t-125.5 -29h-33q-92 0 -125.5 29.5t-33.5 117.5v412q0 89 33.5 118t125.5 29zM196 82h29q31 0 46 10t15 46v424q0 36 -15 46t-46 10h-29
q-31 0 -46 -10t-15 -46v-424q0 -36 15 -46t46 -10z" />
    <glyph glyph-name="ohungarumlaut" unicode="&#x151;" horiz-adv-x="387" 
d="M113 604l61 92h82l-79 -92h-64zM213 604l61 92h97l-94 -92h-64zM177 568h34q83 0 112.5 -28t29.5 -100v-315q0 -71 -29.5 -99.5t-112.5 -28.5h-34q-84 0 -113 28.5t-29 99.5v315q0 72 29 100t113 28zM177 77h34q24 0 35.5 10t11.5 39l1 314q0 29 -11.5 39t-35.5 10h-34
q-24 0 -35.5 -10t-11.5 -39l-1 -314q0 -29 11.5 -39t35.5 -10z" />
    <glyph glyph-name="OE" unicode="&#x152;" horiz-adv-x="584" 
d="M566 0h-372q-90 0 -124.5 33.5t-34.5 123.5v387q0 90 34.5 123t124.5 33h372v-85h-191v-214h176v-85h-176v-231h191v-85zM194 620q-29 0 -43.5 -12t-14.5 -48v-419q0 -36 14.5 -48.5t43.5 -12.5h81v540h-81z" />
    <glyph glyph-name="oe" unicode="&#x153;" horiz-adv-x="606" 
d="M177 568h34q62 0 94 -16q31 16 95 16h30q83 0 112.5 -28t29.5 -100v-196l-219 -2v-116q0 -29 11.5 -39t35.5 -10h35q24 0 35.5 10t11.5 39v52h90v-53q0 -71 -29 -99.5t-113 -28.5h-30q-66 0 -95 15q-30 -15 -94 -15h-34q-84 0 -113 28.5t-29 99.5v315q0 72 29 100t113 28
zM177 77h34q24 0 35.5 10t11.5 39v314v15q-5 34 -46 34h-34q-24 0 -35.5 -10t-11.5 -39l-1 -314q0 -29 11.5 -39t35.5 -10zM400 488q-23 0 -34.5 -9t-12.5 -34v-5v-117h124v116q0 29 -11.5 39t-35.5 10h-30z" />
    <glyph glyph-name="Racute" unicode="&#x154;" horiz-adv-x="396" 
d="M155 739l41 92h97l-74 -92h-64zM37 0v700h189q87 0 118 -27t31 -109v-118q0 -99 -63 -109q33 -7 48 -33t15 -85v-219h-100v234q0 31 -13.5 43t-37.5 13h-87v-290h-100zM137 615v-240h89q13 0 20.5 1t14.5 5.5t10.5 14t3.5 25.5v150q0 20 -8 30.5t-17 12t-27 1.5h-86z" />
    <glyph glyph-name="racute" unicode="&#x155;" horiz-adv-x="273" 
d="M103 604l41 92h97l-74 -92h-64zM36 0v467q0 44 26 72.5t79 28.5h10l119 -6v-70q-70 -4 -99 -6q-26 -1 -32.5 -10t-7.5 -34v-442h-95z" />
    <glyph glyph-name="Rcommaaccent" unicode="&#x156;" horiz-adv-x="396" 
d="M177 -125v88h64v-78q0 -30 -8.5 -50t-30.5 -50l-27 14l9.5 19t7 14.5t3.5 10.5t2.5 13.5t0.5 18.5h-21zM37 0v700h189q87 0 118 -27t31 -109v-118q0 -99 -63 -109q33 -7 48 -33t15 -85v-219h-100v234q0 31 -13.5 43t-37.5 13h-87v-290h-100zM137 615v-240h89q13 0 20.5 1
t14.5 5.5t10.5 14t3.5 25.5v150q0 20 -8 30.5t-17 12t-27 1.5h-86z" />
    <glyph glyph-name="rcommaaccent" unicode="&#x157;" horiz-adv-x="273" 
d="M52 -125v88h64v-78q0 -30 -8.5 -50t-30.5 -50l-27 14l9.5 19t7 14.5t3.5 10.5t2.5 13.5t0.5 18.5h-21zM36 0v467q0 44 26 72.5t79 28.5h10l119 -6v-70q-70 -4 -99 -6q-26 -1 -32.5 -10t-7.5 -34v-442h-95z" />
    <glyph glyph-name="Rcaron" unicode="&#x158;" horiz-adv-x="396" 
d="M153 739l-65 92h64l47 -52l47 52h64l-65 -92h-92zM37 0v700h189q87 0 118 -27t31 -109v-118q0 -99 -63 -109q33 -7 48 -33t15 -85v-219h-100v234q0 31 -13.5 43t-37.5 13h-87v-290h-100zM137 615v-240h89q13 0 20.5 1t14.5 5.5t10.5 14t3.5 25.5v150q0 20 -8 30.5t-17 12
t-27 1.5h-86z" />
    <glyph glyph-name="rcaron" unicode="&#x159;" horiz-adv-x="273" 
d="M91 604l-65 92h64l47 -52l47 52h64l-65 -92h-92zM36 0v467q0 44 26 72.5t79 28.5h10l119 -6v-70q-70 -4 -99 -6q-26 -1 -32.5 -10t-7.5 -34v-442h-95z" />
    <glyph glyph-name="Sacute" unicode="&#x15a;" horiz-adv-x="402" 
d="M168 739l41 92h97l-74 -92h-64zM189 703h21q93 0 126 -29t33 -118v-91h-100v99q0 36 -13.5 45t-45.5 9h-21q-16 0 -24.5 -1t-17.5 -6t-13 -16.5t-4 -30.5v-68q0 -20 3 -32t15.5 -21.5t21 -13t34.5 -13.5l69 -24q51 -19 75.5 -46.5t24.5 -90.5v-111q0 -89 -33.5 -118
t-125.5 -29h-25q-92 0 -125.5 29t-33.5 118v92h100v-99q0 -36 13.5 -45.5t45.5 -9.5h25q31 0 45 9.5t14 45.5v103q0 11 -1 19t-5 14t-6.5 10t-10.5 8.5t-12 6.5t-15 6.5t-16 6.5l-73 25q-27 11 -41.5 18.5t-31.5 22.5t-24 38t-7 56v85q0 89 33.5 118t125.5 29z" />
    <glyph glyph-name="sacute" unicode="&#x15b;" horiz-adv-x="345" 
d="M131 604l41 92h97l-74 -92h-64zM165 568h10q83 0 110 -27.5t27 -100.5v-45h-90v50q0 28 -10.5 35.5t-36.5 7.5h-10q-17 0 -25.5 -2t-15 -11.5t-6.5 -29.5v-45q0 -6 1 -11t2 -8.5t4.5 -7t5 -5.5t8 -5t8.5 -4.5t11 -5.5t12 -5l67 -26q44 -17 64.5 -39.5t20.5 -71.5v-81
q0 -73 -29.5 -102.5t-112.5 -29.5h-15q-84 0 -113 28t-29 100v52h95v-56q0 -28 11 -36t36 -8h15q24 0 35.5 9.5t11.5 38.5v69q0 8 -1.5 14t-2.5 10.5t-5.5 9t-6.5 7t-8.5 5.5t-8.5 4t-10 4.5t-10 4.5l-66 27q-23 9 -33 14.5t-25 17.5t-21 31t-6 47v49q0 72 29 100t113 28z
" />
    <glyph glyph-name="Scedilla" unicode="&#x15e;" horiz-adv-x="402" 
d="M189 703h21q93 0 126 -29t33 -118v-91h-100v99q0 36 -13.5 45t-45.5 9h-21q-16 0 -24.5 -1t-17.5 -6t-13 -16.5t-4 -30.5v-68q0 -20 3 -32t15.5 -21.5t21 -13t34.5 -13.5l69 -24q51 -19 75.5 -46.5t24.5 -90.5v-111q0 -88 -33 -117t-123 -30l-24 -115h-72l42 116
q-76 2 -104.5 32.5t-28.5 113.5v92h100v-99q0 -36 13.5 -45.5t45.5 -9.5h25q31 0 45 9.5t14 45.5v103q0 11 -1 19t-5 14t-6.5 10t-10.5 8.5t-12 6.5t-15 6.5t-16 6.5l-73 25q-27 11 -41.5 18.5t-31.5 22.5t-24 38t-7 56v85q0 89 33.5 118t125.5 29z" />
    <glyph glyph-name="scedilla" unicode="&#x15f;" horiz-adv-x="345" 
d="M165 568h10q83 0 110 -27.5t27 -100.5v-45h-90v50q0 28 -10.5 35.5t-36.5 7.5h-10q-17 0 -25.5 -2t-15 -11.5t-6.5 -29.5v-45q0 -6 1 -11t2 -8.5t4.5 -7t5 -5.5t8 -5t8.5 -4.5t11 -5.5t12 -5l67 -26q44 -17 64.5 -39.5t20.5 -71.5v-81q0 -68 -25 -97.5t-94 -33.5
l-24 -117h-72l42 116q-74 2 -100 30.5t-26 97.5v52h95v-56q0 -28 11 -36t36 -8h15q24 0 35.5 9.5t11.5 38.5v69q0 8 -1.5 14t-2.5 10.5t-5.5 9t-6.5 7t-8.5 5.5t-8.5 4t-10 4.5t-10 4.5l-66 27q-23 9 -33 14.5t-25 17.5t-21 31t-6 47v49q0 72 29 100t113 28z" />
    <glyph glyph-name="Scaron" unicode="&#x160;" horiz-adv-x="402" 
d="M156 739l-65 92h64l47 -52l47 52h64l-65 -92h-92zM189 703h21q93 0 126 -29t33 -118v-91h-100v99q0 36 -13.5 45t-45.5 9h-21q-16 0 -24.5 -1t-17.5 -6t-13 -16.5t-4 -30.5v-68q0 -20 3 -32t15.5 -21.5t21 -13t34.5 -13.5l69 -24q51 -19 75.5 -46.5t24.5 -90.5v-111
q0 -89 -33.5 -118t-125.5 -29h-25q-92 0 -125.5 29t-33.5 118v92h100v-99q0 -36 13.5 -45.5t45.5 -9.5h25q31 0 45 9.5t14 45.5v103q0 11 -1 19t-5 14t-6.5 10t-10.5 8.5t-12 6.5t-15 6.5t-16 6.5l-73 25q-27 11 -41.5 18.5t-31.5 22.5t-24 38t-7 56v85q0 89 33.5 118
t125.5 29z" />
    <glyph glyph-name="scaron" unicode="&#x161;" horiz-adv-x="345" 
d="M132 604l-65 92h64l47 -52l47 52h64l-65 -92h-92zM165 568h10q83 0 110 -27.5t27 -100.5v-45h-90v50q0 28 -10.5 35.5t-36.5 7.5h-10q-17 0 -25.5 -2t-15 -11.5t-6.5 -29.5v-45q0 -6 1 -11t2 -8.5t4.5 -7t5 -5.5t8 -5t8.5 -4.5t11 -5.5t12 -5l67 -26q44 -17 64.5 -39.5
t20.5 -71.5v-81q0 -73 -29.5 -102.5t-112.5 -29.5h-15q-84 0 -113 28t-29 100v52h95v-56q0 -28 11 -36t36 -8h15q24 0 35.5 9.5t11.5 38.5v69q0 8 -1.5 14t-2.5 10.5t-5.5 9t-6.5 7t-8.5 5.5t-8.5 4t-10 4.5t-10 4.5l-66 27q-23 9 -33 14.5t-25 17.5t-21 31t-6 47v49
q0 72 29 100t113 28z" />
    <glyph glyph-name="Tcommaaccent" unicode="&#x162;" horiz-adv-x="376" 
d="M155 -125v88h64v-78q0 -30 -8.5 -50t-30.5 -50l-27 14l9.5 19t7 14.5t3.5 10.5t2.5 13.5t0.5 18.5h-21zM238 615v-615h-100v615h-132v85h364v-85h-132z" />
    <glyph glyph-name="tcommaaccent" unicode="&#x163;" horiz-adv-x="238" 
d="M104 -125v88h64v-78q0 -30 -8.5 -50t-30.5 -50l-27 14l9.5 19t7 14.5t3.5 10.5t2.5 13.5t0.5 18.5h-21zM226 565v-80h-79v-372q0 -32 27 -32h60v-81l-60 -3q-72 -2 -97 20.5t-25 90.5v377h-41v80h41v125h95v-125h79z" />
    <glyph glyph-name="Tcaron" unicode="&#x164;" horiz-adv-x="376" 
d="M142 739l-65 92h64l47 -52l47 52h64l-65 -92h-92zM238 615v-615h-100v615h-132v85h364v-85h-132z" />
    <glyph glyph-name="tcaron" unicode="&#x165;" horiz-adv-x="243" 
d="M181 683v82h54v-73q0 -19 -6 -35.5t-11.5 -25t-21.5 -28.5l-23 11q5 10 11 20t8.5 15t4.5 13.5t2 20.5h-18zM226 565v-80h-79v-372q0 -32 27 -32h60v-81l-60 -3q-72 -2 -97 20.5t-25 90.5v377h-41v80h41v125h95v-125h79z" />
    <glyph glyph-name="Umacron" unicode="&#x16a;" horiz-adv-x="421" 
d="M35 700h100v-559q0 -37 10.5 -48t38.5 -11h53q28 0 38.5 11t10.5 48v559h100v-556q0 -89 -33.5 -118t-125.5 -29h-33q-92 0 -125.5 29t-33.5 118v556zM108 757v56h206v-56h-206z" />
    <glyph glyph-name="umacron" unicode="&#x16b;" horiz-adv-x="387" 
d="M129 565v-440q0 -44 40 -44h87v484h95v-565q-130 -3 -167 -3h-32q-118 0 -118 113v455h95zM91 622v56h206v-56h-206z" />
    <glyph glyph-name="Ubreve" unicode="&#x16c;" horiz-adv-x="421" 
d="M35 700h100v-559q0 -37 10.5 -48t38.5 -11h53q28 0 38.5 11t10.5 48v559h100v-556q0 -89 -33.5 -118t-125.5 -29h-33q-92 0 -125.5 29t-33.5 118v556zM230 737h-38q-51 0 -69 18t-18 68v11h58v-17q0 -32 31 -32h34q31 0 31 32v17h57v-11q0 -50 -18 -68t-68 -18z" />
    <glyph glyph-name="ubreve" unicode="&#x16d;" horiz-adv-x="387" 
d="M129 565v-440q0 -44 40 -44h87v484h95v-565q-130 -3 -167 -3h-32q-118 0 -118 113v455h95zM213 602h-38q-51 0 -69 18t-18 68v11h58v-17q0 -32 31 -32h34q31 0 31 32v17h57v-11q0 -50 -18 -68t-68 -18z" />
    <glyph glyph-name="Uring" unicode="&#x16e;" horiz-adv-x="421" 
d="M201 868h19q38 0 50.5 -13t12.5 -48v-14q0 -35 -12.5 -48t-50.5 -13h-19q-38 0 -50.5 13t-12.5 48v14q0 35 12.5 48t50.5 13zM218 837h-15q-21 0 -26 -4.5t-5 -22.5v-19q0 -19 5.5 -23.5t25.5 -4.5h15q21 0 26.5 5t5.5 23v19q0 18 -5 22.5t-27 4.5zM35 700h100v-559
q0 -37 10.5 -48t38.5 -11h53q28 0 38.5 11t10.5 48v559h100v-556q0 -89 -33.5 -118t-125.5 -29h-33q-92 0 -125.5 29t-33.5 118v556z" />
    <glyph glyph-name="uring" unicode="&#x16f;" horiz-adv-x="387" 
d="M129 565v-440q0 -44 40 -44h87v484h95v-565q-130 -3 -167 -3h-32q-118 0 -118 113v455h95zM184 733h19q38 0 50.5 -13t12.5 -48v-14q0 -35 -12.5 -48t-50.5 -13h-19q-38 0 -50.5 13t-12.5 48v14q0 35 12.5 48t50.5 13zM201 702h-15q-21 0 -26 -4.5t-5 -22.5v-19
q0 -19 5.5 -23.5t25.5 -4.5h15q21 0 26.5 5t5.5 23v19q0 18 -5 22.5t-27 4.5z" />
    <glyph glyph-name="Uhungarumlaut" unicode="&#x170;" horiz-adv-x="421" 
d="M35 700h100v-559q0 -37 10.5 -48t38.5 -11h53q28 0 38.5 11t10.5 48v559h100v-556q0 -89 -33.5 -118t-125.5 -29h-33q-92 0 -125.5 29t-33.5 118v556zM126 739l61 92h82l-79 -92h-64zM226 739l61 92h97l-94 -92h-64z" />
    <glyph glyph-name="uhungarumlaut" unicode="&#x171;" horiz-adv-x="387" 
d="M129 565v-440q0 -44 40 -44h87v484h95v-565q-130 -3 -167 -3h-32q-118 0 -118 113v455h95zM210 604l61 92h97l-94 -92h-64zM110 604l61 92h82l-79 -92h-64z" />
    <glyph glyph-name="Uogonek" unicode="&#x172;" horiz-adv-x="421" 
d="M35 700h100v-559q0 -37 10.5 -48t38.5 -11h53q28 0 38.5 11t10.5 48v559h100v-556q0 -83 -28.5 -113.5t-103.5 -32.5v-2l-50 -30q-4 -2 -9.5 -6t-7.5 -5.5t-5 -4t-4 -4.5t-1.5 -4.5t-0.5 -6.5v-7q0 -9 0.5 -12.5t4 -6t10.5 -2.5h29q11 0 12.5 3t1.5 15v16h49v-15
q0 -34 -9.5 -48.5t-41.5 -14.5h-50q-34 0 -45.5 11.5t-11.5 41.5v12q0 22 7.5 31t29.5 22l32 16q-92 0 -125.5 29t-33.5 118v556z" />
    <glyph glyph-name="uogonek" unicode="&#x173;" horiz-adv-x="387" 
d="M129 565v-440q0 -44 40 -44h87v484h95v-565l-50 -30q-4 -2 -9.5 -6t-7.5 -5.5t-5 -4t-4 -4.5t-1.5 -4.5t-0.5 -6.5v-7q0 -9 0.5 -12.5t4 -6t10.5 -2.5h29q11 0 12.5 3t1.5 15v16h49v-15q0 -34 -9.5 -48.5t-41.5 -14.5h-50q-34 0 -45.5 11.5t-11.5 41.5v12q0 22 7.5 31
t29.5 22q4 1 27 14q-78 -2 -102 -2h-32q-118 0 -118 113v455h95z" />
    <glyph glyph-name="Wcircumflex" unicode="&#x174;" horiz-adv-x="606" 
d="M192 739l65 92h92l65 -92h-64l-47 52l-47 -52h-64zM9 700h103l62 -574h4l61 574h129l60 -574h4l63 574h103l-80 -700h-175l-37 469h-6l-36 -469h-175z" />
    <glyph glyph-name="wcircumflex" unicode="&#x175;" horiz-adv-x="544" 
d="M161 604l65 92h92l65 -92h-64l-47 52l-47 -52h-64zM309 0l-36 332h-3l-35 -332h-150l-81 565h100l55 -440h5l53 440h110l53 -440h4l56 440h100l-81 -565h-150z" />
    <glyph glyph-name="Ycircumflex" unicode="&#x176;" horiz-adv-x="412" 
d="M156 0v274l-149 426h100l98 -309l99 309h101l-149 -426v-274h-100zM95 739l65 92h92l65 -92h-64l-47 52l-47 -52h-64z" />
    <glyph glyph-name="ycircumflex" unicode="&#x177;" horiz-adv-x="373" 
d="M104 5l-107 560h103l79 -471h8l84 471h95l-126 -691h-91l24 131h-69zM76 604l65 92h92l65 -92h-64l-47 52l-47 -52h-64z" />
    <glyph glyph-name="Ydieresis" unicode="&#x178;" horiz-adv-x="412" 
d="M156 0v274l-149 426h100l98 -309l99 309h101l-149 -426v-274h-100zM114 747v84h64v-84h-64zM234 747v84h64v-84h-64z" />
    <glyph glyph-name="Zacute" unicode="&#x179;" horiz-adv-x="352" 
d="M130 739l41 92h97l-74 -92h-64zM27 614v86h305v-85l-208 -530h208v-85h-312v86l218 528h-211z" />
    <glyph glyph-name="zacute" unicode="&#x17a;" horiz-adv-x="334" 
d="M119 604l41 92h97l-74 -92h-64zM320 84v-84h-306v81l198 400h-193v84h299v-84l-196 -397h198z" />
    <glyph glyph-name="Zdotaccent" unicode="&#x17b;" horiz-adv-x="352" 
d="M27 614v86h305v-85l-208 -530h208v-85h-312v86l218 528h-211zM156 753v79h62v-79h-62z" />
    <glyph glyph-name="zdotaccent" unicode="&#x17c;" horiz-adv-x="334" 
d="M320 84v-84h-306v81l198 400h-193v84h299v-84l-196 -397h198zM147 618v79h62v-79h-62z" />
    <glyph glyph-name="Zcaron" unicode="&#x17d;" horiz-adv-x="352" 
d="M131 739l-65 92h64l47 -52l47 52h64l-65 -92h-92zM27 614v86h305v-85l-208 -530h208v-85h-312v86l218 528h-211z" />
    <glyph glyph-name="zcaron" unicode="&#x17e;" horiz-adv-x="334" 
d="M122 604l-65 92h64l47 -52l47 52h64l-65 -92h-92zM320 84v-84h-306v81l198 400h-193v84h299v-84l-196 -397h198z" />
    <glyph glyph-name="Aringacute" unicode="&#x1fa;" horiz-adv-x="407" 
d="M194 810h19q38 0 50.5 -13t12.5 -48v-14q0 -24 -5 -35h13l135 -700h-100l-30 141h-171l-29 -141h-100l135 700h11q-4 12 -4 35v14q0 35 12.5 48t50.5 13zM198 621l-66 -385h143l-66 385h-11zM170 831l41 92h97l-74 -92h-64zM211 779h-15q-21 0 -26 -4.5t-5 -22.5v-19
q0 -19 5.5 -23.5t25.5 -4.5h15q21 0 26.5 5t5.5 23v19q0 18 -5 22.5t-27 4.5z" />
    <glyph glyph-name="aringacute" unicode="&#x1fb;" horiz-adv-x="378" 
d="M185 568h18q83 0 111 -28t28 -100v-435q-107 -8 -164 -8h-30q-118 0 -118 113v136q0 112 118 112h99v83q0 22 -6.5 32.5t-14.5 12.5t-25 2h-18q-13 0 -19 -1t-13.5 -4.5t-10.5 -13t-3 -25.5v-47h-88v43q0 73 26.5 100.5t109.5 27.5zM125 245v-120q0 -44 36 -44h86v205
h-86q-36 0 -36 -41zM163 757l41 92h97l-74 -92h-64zM187 731h19q38 0 50.5 -13t12.5 -48v-14q0 -35 -12.5 -48t-50.5 -13h-19q-38 0 -50.5 13t-12.5 48v14q0 35 12.5 48t50.5 13zM204 700h-15q-21 0 -26 -4.5t-5 -22.5v-19q0 -19 5.5 -23.5t25.5 -4.5h15q21 0 26.5 5t5.5 23
v19q0 18 -5 22.5t-27 4.5z" />
    <glyph glyph-name="AEacute" unicode="&#x1fc;" horiz-adv-x="629" 
d="M351 739l41 92h97l-74 -92h-64zM316 0v151h-158l-48 -151h-99l231 700h365v-85h-191v-214h176v-86h-176v-229h191v-86h-291zM301 615l-117 -379h132v379h-15z" />
    <glyph glyph-name="aeacute" unicode="&#x1fd;" horiz-adv-x="600" 
d="M276 604l41 92h97l-74 -92h-64zM394 568h30q83 0 112.5 -28t29.5 -100v-206l-219 -2v-109q0 -29 11.5 -39t35.5 -10h40q24 0 35.5 10t11.5 39v55h85v-53q0 -71 -28.5 -99t-110.5 -29h-33q-58 0 -86 7.5t-40 34.5q-3 -2 -12 -9.5t-15.5 -11.5t-16.5 -10t-21.5 -8.5
t-24.5 -2.5h-30q-118 0 -118 113v126q0 112 118 112h104v95q-1 28 -12 37t-32 9h-39q-19 -2 -28 -12t-9 -37v-43h-83v43q0 71 26 99t105 29h28q70 0 92 -33q23 33 94 33zM252 111v162h-87q-19 0 -29.5 -14.5t-10.5 -35.5v-98q0 -44 40 -44h24q24 0 63 30zM394 492
q-23 0 -35 -9t-12 -35v-139h124v134q0 29 -11.5 39t-35.5 10h-30z" />
    <glyph glyph-name="Oslashacute" unicode="&#x1fe;" horiz-adv-x="421" 
d="M194 703h33q56 0 85 -8l17 45h54l-27 -70q30 -31 30 -114v-412q0 -89 -33.5 -118t-125.5 -29h-33q-54 0 -88 9l-16 -42h-53l27 67q-29 32 -29 113v412q0 89 33.5 118t125.5 29zM135 562v-378l141 418q-13 16 -51 16h-29q-31 0 -46 -10t-15 -46zM196 82h29q31 0 46 10
t15 46v366l-138 -410q12 -12 48 -12zM170 739l41 92h97l-74 -92h-64z" />
    <glyph glyph-name="oslashacute" unicode="&#x1ff;" horiz-adv-x="387" 
d="M177 568h34q33 0 61 -5l18 45h50l-27 -60q40 -27 40 -108v-315q0 -71 -29.5 -99.5t-112.5 -28.5h-34q-45 0 -75 8l-18 -37h-49l27 59q-27 27 -27 98v315q0 72 29 100t113 28zM177 77h34q24 0 35.5 10t11.5 39l1 308l-120 -344q9 -13 38 -13zM131 440l-1 -259l109 304
q-11 4 -27 4h-34q-24 0 -35.5 -10t-11.5 -39zM160 604l41 92h97l-74 -92h-64z" />
    <glyph glyph-name="Scommaaccent" unicode="&#x218;" horiz-adv-x="402" 
d="M167 -125v88h64v-78q0 -30 -8.5 -50t-30.5 -50l-27 14l9.5 19t7 14.5t3.5 10.5t2.5 13.5t0.5 18.5h-21zM189 703h21q93 0 126 -29t33 -118v-91h-100v99q0 36 -13.5 45t-45.5 9h-21q-16 0 -24.5 -1t-17.5 -6t-13 -16.5t-4 -30.5v-68q0 -20 3 -32t15.5 -21.5t21 -13
t34.5 -13.5l69 -24q51 -19 75.5 -46.5t24.5 -90.5v-111q0 -89 -33.5 -118t-125.5 -29h-25q-92 0 -125.5 29t-33.5 118v92h100v-99q0 -36 13.5 -45.5t45.5 -9.5h25q31 0 45 9.5t14 45.5v103q0 11 -1 19t-5 14t-6.5 10t-10.5 8.5t-12 6.5t-15 6.5t-16 6.5l-73 25
q-27 11 -41.5 18.5t-31.5 22.5t-24 38t-7 56v85q0 89 33.5 118t125.5 29z" />
    <glyph glyph-name="scommaaccent" unicode="&#x219;" horiz-adv-x="345" 
d="M137 -125v88h64v-78q0 -30 -8.5 -50t-30.5 -50l-27 14l9.5 19t7 14.5t3.5 10.5t2.5 13.5t0.5 18.5h-21zM165 568h10q83 0 110 -27.5t27 -100.5v-45h-90v50q0 28 -10.5 35.5t-36.5 7.5h-10q-17 0 -25.5 -2t-15 -11.5t-6.5 -29.5v-45q0 -6 1 -11t2 -8.5t4.5 -7t5 -5.5t8 -5
t8.5 -4.5t11 -5.5t12 -5l67 -26q44 -17 64.5 -39.5t20.5 -71.5v-81q0 -73 -29.5 -102.5t-112.5 -29.5h-15q-84 0 -113 28t-29 100v52h95v-56q0 -28 11 -36t36 -8h15q24 0 35.5 9.5t11.5 38.5v69q0 8 -1.5 14t-2.5 10.5t-5.5 9t-6.5 7t-8.5 5.5t-8.5 4t-10 4.5t-10 4.5
l-66 27q-23 9 -33 14.5t-25 17.5t-21 31t-6 47v49q0 72 29 100t113 28z" />
    <glyph glyph-name="circumflex" unicode="&#x2c6;" horiz-adv-x="500" 
d="M139 604l65 92h92l65 -92h-64l-47 52l-47 -52h-64z" />
    <glyph glyph-name="caron" unicode="&#x2c7;" horiz-adv-x="500" 
d="M204 604l-65 92h64l47 -52l47 52h64l-65 -92h-92z" />
    <glyph glyph-name="breve" unicode="&#x2d8;" horiz-adv-x="500" 
d="M269 602h-38q-51 0 -69 18t-18 68v11h58v-17q0 -32 31 -32h34q31 0 31 32v17h57v-11q0 -50 -18 -68t-68 -18z" />
    <glyph glyph-name="dotaccent" unicode="&#x2d9;" horiz-adv-x="500" 
d="M219 618v79h62v-79h-62z" />
    <glyph glyph-name="ring" unicode="&#x2da;" horiz-adv-x="500" 
d="M240 733h19q38 0 50.5 -13t12.5 -48v-14q0 -35 -12.5 -48t-50.5 -13h-19q-38 0 -50.5 13t-12.5 48v14q0 35 12.5 48t50.5 13zM257 702h-15q-21 0 -26 -4.5t-5 -22.5v-19q0 -19 5.5 -23.5t25.5 -4.5h15q21 0 26.5 5t5.5 23v19q0 18 -5 22.5t-27 4.5z" />
    <glyph glyph-name="ogonek" unicode="&#x2db;" horiz-adv-x="500" 
d="M331 -61v-15q0 -34 -9.5 -48.5t-41.5 -14.5h-50q-34 0 -45.5 11.5t-11.5 41.5v12q0 22 7.5 31t29.5 22l41 21h51v-6l-50 -30q-4 -2 -9.5 -6t-7.5 -5.5t-5 -4t-4 -4.5t-1.5 -4.5t-0.5 -6.5v-7q0 -9 0.5 -12.5t4 -6t10.5 -2.5h29q11 0 12.5 3t1.5 15v16h49z" />
    <glyph glyph-name="tilde" unicode="&#x2dc;" horiz-adv-x="500" 
d="M295 609l-97 50l-3 -48h-43l2 84h44l97 -35l3 34h43l-2 -85h-44z" />
    <glyph glyph-name="hungarumlaut" unicode="&#x2dd;" horiz-adv-x="500" 
d="M146 604l61 92h82l-79 -92h-64zM246 604l61 92h97l-94 -92h-64z" />
    <glyph glyph-name="Wgrave" unicode="&#x1e80;" horiz-adv-x="606" 
d="M9 700h103l62 -574h4l61 574h129l60 -574h4l63 574h103l-80 -700h-175l-37 469h-6l-36 -469h-175zM296 831l40 -92h-64l-73 92h97z" />
    <glyph glyph-name="wgrave" unicode="&#x1e81;" horiz-adv-x="544" 
d="M309 0l-36 332h-3l-35 -332h-150l-81 565h100l55 -440h5l53 440h110l53 -440h4l56 440h100l-81 -565h-150zM271 696l40 -92h-64l-73 92h97z" />
    <glyph glyph-name="Wacute" unicode="&#x1e82;" horiz-adv-x="606" 
d="M269 739l41 92h97l-74 -92h-64zM9 700h103l62 -574h4l61 574h129l60 -574h4l63 574h103l-80 -700h-175l-37 469h-6l-36 -469h-175z" />
    <glyph glyph-name="wacute" unicode="&#x1e83;" horiz-adv-x="544" 
d="M238 604l41 92h97l-74 -92h-64zM309 0l-36 332h-3l-35 -332h-150l-81 565h100l55 -440h5l53 440h110l53 -440h4l56 440h100l-81 -565h-150z" />
    <glyph glyph-name="Wdieresis" unicode="&#x1e84;" horiz-adv-x="606" 
d="M213 747v84h64v-84h-64zM333 747v84h64v-84h-64zM9 700h103l62 -574h4l61 574h129l60 -574h4l63 574h103l-80 -700h-175l-37 469h-6l-36 -469h-175z" />
    <glyph glyph-name="wdieresis" unicode="&#x1e85;" horiz-adv-x="544" 
d="M182 612v84h64v-84h-64zM302 612v84h64v-84h-64zM309 0l-36 332h-3l-35 -332h-150l-81 565h100l55 -440h5l53 440h110l53 -440h4l56 440h100l-81 -565h-150z" />
    <glyph glyph-name="Ygrave" unicode="&#x1ef2;" horiz-adv-x="412" 
d="M156 0v274l-149 426h100l98 -309l99 309h101l-149 -426v-274h-100zM205 831l40 -92h-64l-73 92h97z" />
    <glyph glyph-name="ygrave" unicode="&#x1ef3;" horiz-adv-x="373" 
d="M104 5l-107 560h103l79 -471h8l84 471h95l-126 -691h-91l24 131h-69zM185 696l40 -92h-64l-73 92h97z" />
    <glyph glyph-name="endash" unicode="&#x2013;" horiz-adv-x="394" 
d="M15 266v68h364v-68h-364z" />
    <glyph glyph-name="emdash" unicode="&#x2014;" horiz-adv-x="564" 
d="M15 266v68h534v-68h-534z" />
    <glyph glyph-name="quoteleft" unicode="&#x2018;" horiz-adv-x="163" 
d="M124 589v-122h-87v97q0 43 12 69.5t43 66.5l29 -21q-20 -32 -25 -47.5t-5 -42.5h33z" />
    <glyph glyph-name="quoteright" unicode="&#x2019;" horiz-adv-x="163" 
d="M39 579v122h87v-97q0 -43 -12 -69.5t-43 -66.5l-29 21q20 32 25 47.5t5 42.5h-33z" />
    <glyph glyph-name="quotesinglbase" unicode="&#x201a;" horiz-adv-x="163" 
d="M39 0v122h87v-97q0 -43 -12 -69.5t-43 -66.5l-29 21q20 32 25 47.5t5 42.5h-33z" />
    <glyph glyph-name="quotedblleft" unicode="&#x201c;" horiz-adv-x="291" 
d="M124 589v-122h-87v97q0 43 12 69.5t43 66.5l29 -21q-20 -32 -25 -47.5t-5 -42.5h33zM251 589v-122h-87v97q0 43 12 69.5t43 66.5l29 -21q-20 -32 -25 -47.5t-5 -42.5h33z" />
    <glyph glyph-name="quotedblright" unicode="&#x201d;" horiz-adv-x="291" 
d="M39 579v122h87v-97q0 -43 -12 -69.5t-43 -66.5l-29 21q20 32 25 47.5t5 42.5h-33zM166 579v122h87v-97q0 -43 -12 -69.5t-43 -66.5l-29 21q20 32 25 47.5t5 42.5h-33z" />
    <glyph glyph-name="quotedblbase" unicode="&#x201e;" horiz-adv-x="291" 
d="M39 0v122h87v-97q0 -43 -12 -69.5t-43 -66.5l-29 21q20 32 25 47.5t5 42.5h-33zM166 0v122h87v-97q0 -43 -12 -69.5t-43 -66.5l-29 21q20 32 25 47.5t5 42.5h-33z" />
    <glyph glyph-name="dagger" unicode="&#x2020;" horiz-adv-x="333" 
d="M158 566l-16 78v56h50v-56l-16 -78h-18zM267 569h56v-51h-56l-78 16v19zM144 534l-78 -16h-56v51h56l78 -16v-19zM158 261l-16 142l16 118h18l16 -118l-16 -142h-18z" />
    <glyph glyph-name="daggerdbl" unicode="&#x2021;" horiz-adv-x="333" 
d="M158 326l-16 97l16 98h18l16 -97l-16 -98h-18zM66 569l78 -16v-19l-78 -16h-56v51h56zM142 146v56l16 78h18l16 -78v-56h-50zM323 518h-56l-78 16v19l78 16h56v-51zM66 328l78 -16v-18l-78 -16h-56v50h56zM158 566l-16 78v56h50v-56l-16 -78h-18zM189 312l78 16h56v-50
h-56l-78 16v18z" />
    <glyph glyph-name="bullet" unicode="&#x2022;" horiz-adv-x="264" 
d="M122 467h22q49 0 61 -15t12 -61v-74q0 -46 -12.5 -60.5t-60.5 -14.5h-22q-50 0 -62.5 14.5t-12.5 60.5v74q0 47 12.5 61.5t62.5 14.5z" />
    <glyph glyph-name="ellipsis" unicode="&#x2026;" horiz-adv-x="488" 
d="M38 0v122h87v-122h-87zM201 0v122h86v-122h-86zM363 0v122h87v-122h-87z" />
    <glyph glyph-name="perthousand" unicode="&#x2030;" horiz-adv-x="886" 
d="M148 0l270 700h60l-270 -700h-60zM130 702h38q51 0 71.5 -21t20.5 -71v-203q0 -51 -20.5 -72t-71.5 -21h-38q-51 0 -71.5 21t-20.5 72v203q0 50 20.5 71t71.5 21zM165 654h-32q-18 0 -26.5 -8t-8.5 -29v-217q0 -21 8.5 -29t26.5 -8h32q18 0 26.5 8t8.5 29v217
q0 21 -8.5 29t-26.5 8zM463 386h38q51 0 71.5 -21t20.5 -71v-203q0 -51 -20.5 -72.5t-71.5 -21.5h-38q-51 0 -71.5 21.5t-20.5 72.5v203q0 50 20.5 71t71.5 21zM498 338h-32q-18 0 -26.5 -8t-8.5 -29v-217q0 -21 8.5 -29t26.5 -8h32q18 0 26.5 8t8.5 29v217q0 21 -8.5 29
t-26.5 8zM718 386h38q51 0 71.5 -21t20.5 -71v-203q0 -51 -20.5 -72.5t-71.5 -21.5h-38q-51 0 -71.5 21.5t-20.5 72.5v203q0 50 20.5 71t71.5 21zM753 338h-32q-18 0 -26.5 -8t-8.5 -29v-217q0 -21 8.5 -29t26.5 -8h32q18 0 26.5 8t8.5 29v217q0 21 -8.5 29t-26.5 8z" />
    <glyph glyph-name="guilsinglleft" unicode="&#x2039;" horiz-adv-x="188" 
d="M106 111l-95 169v11l95 170h64l-78 -170v-11l78 -169h-64z" />
    <glyph glyph-name="guilsinglright" unicode="&#x203a;" horiz-adv-x="188" 
d="M176 280l-95 -169h-64l78 169v11l-78 170h64l95 -170v-11z" />
    <glyph glyph-name="fraction" unicode="&#x2044;" horiz-adv-x="231" 
d="M-29 0l228 700h60l-228 -700h-60z" />
    <glyph glyph-name="Euro" unicode="&#x20ac;" horiz-adv-x="419" 
d="M210 622q-30 0 -44.5 -12.5t-14.5 -48.5v-122h199v-58h-199v-42h199v-58h-199v-142q0 -36 14.5 -48.5t44.5 -12.5h36q30 0 44.5 12.5t14.5 48.5v87h94v-82q0 -89 -33.5 -118t-125.5 -29h-30q-92 0 -125.5 29t-33.5 118v137h-40v58h40v42h-40v58h40v117q0 89 33.5 118
t125.5 29h28q92 0 125.5 -29t33.5 -118v-57h-94v62q0 36 -14.5 48.5t-44.5 12.5h-34z" />
    <glyph glyph-name="afii61352" unicode="&#x2116;" horiz-adv-x="818" 
d="M608 703h34q83 0 112.5 -28t29.5 -100v-312q0 -72 -29.5 -100t-112.5 -28h-34q-84 0 -113 28t-29 100v312q0 72 29 100t113 28zM608 221h34q24 0 35.5 10t11.5 39v298q0 29 -11.5 39t-35.5 10h-34q-24 0 -35.5 -10t-11.5 -39v-298q0 -29 11.5 -39t35.5 -10zM466 0v85h318
v-85h-318zM39 700h106l149 -449h1v449h98v-700h-109l-140 435h-5v-435h-100v700z" />
    <glyph glyph-name="trademark" unicode="&#x2122;" horiz-adv-x="486" 
d="M260 608l2 -258h-49v350h78l41 -245h3l41 245h78v-350h-49l3 258h-2l-50 -258h-45l-49 258h-2zM12 656v44h181v-44h-65v-306h-51v306h-65z" />
    <glyph glyph-name="arrowleft" unicode="&#x2190;" horiz-adv-x="400" 
d="M162 121l-130 169v11l130 170l42 -37l-83 -110h252v-57h-252l83 -109z" />
    <glyph glyph-name="arrowup" unicode="&#x2191;" horiz-adv-x="400" 
d="M206 465l169 -130l-37 -42l-109 83v-252h-57v252l-110 -83l-37 42l170 130h11z" />
    <glyph glyph-name="arrowright" unicode="&#x2192;" horiz-adv-x="400" 
d="M372 290l-130 -169l-42 37l83 109h-252v57h252l-83 110l42 37l130 -170v-11z" />
    <glyph glyph-name="arrowdown" unicode="&#x2193;" horiz-adv-x="400" 
d="M375 253l-169 -130h-11l-170 130l37 42l110 -83v252h57v-252l109 83z" />
    <glyph glyph-name="uni2196" unicode="&#x2196;" horiz-adv-x="400" 
d="M84 419l211 28l4 -56l-136 -18l178 -179l-40 -40l-178 178l-20 -136l-55 3l28 213z" />
    <glyph glyph-name="uni2197" unicode="&#x2197;" horiz-adv-x="400" 
d="M102 447l211 -28l8 -7l28 -213l-55 -3l-20 136l-178 -178l-40 40l178 179l-136 18z" />
    <glyph glyph-name="uni2198" unicode="&#x2198;" horiz-adv-x="400" 
d="M313 174l-211 -28l-4 56l136 18l-178 179l40 40l178 -178l20 136l55 -3l-28 -213z" />
    <glyph glyph-name="uni2199" unicode="&#x2199;" horiz-adv-x="400" 
d="M295 146l-211 28l-8 7l-28 213l55 3l20 -136l178 178l40 -40l-178 -179l136 -18z" />
    <glyph glyph-name="minus" unicode="&#x2212;" horiz-adv-x="335" 
d="M21 326v66h294v-66h-294z" />
    <glyph glyph-name="commaaccent" unicode="&#xf6c3;" horiz-adv-x="500" 
d="M221 -15v88h64v-78q0 -30 -8.5 -50t-30.5 -50l-27 14l9.5 19t7 14.5t3.5 10.5t2.5 13.5t0.5 18.5h-21z" />
    <glyph glyph-name="idotaccent" horiz-adv-x="168" 
d="M37 0v565h95v-565h-95zM35 616v75h98v-75h-98z" />
    <glyph glyph-name="aacute.alt" 
d="M153 568h33l167 -3v-565q-118 -3 -170 -3h-30q-118 0 -118 113v346q0 112 118 112zM170 81h88v404h-88q-40 0 -40 -44v-316q0 -44 40 -44zM156 604l41 92h97l-74 -92h-64z" />
    <glyph glyph-name="a.alt" 
d="M153 568h33l167 -3v-565q-118 -3 -170 -3h-30q-118 0 -118 113v346q0 112 118 112zM170 81h88v404h-88q-40 0 -40 -44v-316q0 -44 40 -44z" />
    <glyph glyph-name="acircumflex.alt" 
d="M153 568h33l167 -3v-565q-118 -3 -170 -3h-30q-118 0 -118 113v346q0 112 118 112zM170 81h88v404h-88q-40 0 -40 -44v-316q0 -44 40 -44zM84 604l65 92h92l65 -92h-64l-47 52l-47 -52h-64z" />
    <glyph glyph-name="adieresis.alt" 
d="M153 568h33l167 -3v-565q-118 -3 -170 -3h-30q-118 0 -118 113v346q0 112 118 112zM170 81h88v404h-88q-40 0 -40 -44v-316q0 -44 40 -44zM107 612v84h64v-84h-64zM227 612v84h64v-84h-64z" />
    <glyph glyph-name="agrave.alt" 
d="M153 568h33l167 -3v-565q-118 -3 -170 -3h-30q-118 0 -118 113v346q0 112 118 112zM170 81h88v404h-88q-40 0 -40 -44v-316q0 -44 40 -44zM212 696l40 -92h-64l-73 92h97z" />
    <glyph glyph-name="amacron.alt" 
d="M153 568h33l167 -3v-565q-118 -3 -170 -3h-30q-118 0 -118 113v346q0 112 118 112zM170 81h88v404h-88q-40 0 -40 -44v-316q0 -44 40 -44zM93 622v56h206v-56h-206z" />
    <glyph glyph-name="abreve.alt" 
d="M153 568h33l167 -3v-565q-118 -3 -170 -3h-30q-118 0 -118 113v346q0 112 118 112zM170 81h88v404h-88q-40 0 -40 -44v-316q0 -44 40 -44zM221 602h-38q-51 0 -69 18t-18 68v11h58v-17q0 -32 31 -32h34q31 0 31 32v17h57v-11q0 -50 -18 -68t-68 -18z" />
    <glyph glyph-name="aogonek.alt" 
d="M353 -41v-15q0 -34 -9.5 -48.5t-41.5 -14.5h-50q-34 0 -45.5 11.5t-11.5 41.5v12q0 22 7 31t26 20h-45h-30q-118 0 -118 113v346q0 112 118 112h33l167 -3v-565q-26 -1 -55 -1l-24 -15q-4 -2 -9.5 -6t-7.5 -5.5t-5 -4t-4 -4.5t-1.5 -4.5t-0.5 -6.5v-7q0 -9 0.5 -12.5
t4 -6t10.5 -2.5h29q11 0 12.5 3t1.5 15v16h49zM170 81h88v404h-88q-40 0 -40 -44v-316q0 -44 40 -44z" />
    <glyph glyph-name="aringacute.alt" 
d="M153 568h33l167 -3v-565q-118 -3 -170 -3h-30q-118 0 -118 113v346q0 112 118 112zM170 81h88v404h-88q-40 0 -40 -44v-316q0 -44 40 -44zM187 733h19q38 0 50.5 -13t12.5 -48v-14q0 -35 -12.5 -48t-50.5 -13h-19q-38 0 -50.5 13t-12.5 48v14q0 35 12.5 48t50.5 13z
M161 764l41 92h97l-74 -92h-64zM204 702h-15q-21 0 -26 -4.5t-5 -22.5v-19q0 -19 5.5 -23.5t25.5 -4.5h15q21 0 26.5 5t5.5 23v19q0 18 -5 22.5t-27 4.5z" />
    <glyph glyph-name="atilde.alt" 
d="M153 568h33l167 -3v-565q-118 -3 -170 -3h-30q-118 0 -118 113v346q0 112 118 112zM170 81h88v404h-88q-40 0 -40 -44v-316q0 -44 40 -44zM240 609l-97 50l-3 -48h-43l2 84h44l97 -35l3 34h43l-2 -85h-44z" />
    <glyph glyph-name="aring.alt" 
d="M153 568h33l167 -3v-565q-118 -3 -170 -3h-30q-118 0 -118 113v346q0 112 118 112zM170 81h88v404h-88q-40 0 -40 -44v-316q0 -44 40 -44zM183 733h19q38 0 50.5 -13t12.5 -48v-14q0 -35 -12.5 -48t-50.5 -13h-19q-38 0 -50.5 13t-12.5 48v14q0 35 12.5 48t50.5 13z
M200 702h-15q-21 0 -26 -4.5t-5 -22.5v-19q0 -19 5.5 -23.5t25.5 -4.5h15q21 0 26.5 5t5.5 23v19q0 18 -5 22.5t-27 4.5z" />
    <glyph glyph-name="gbreve.alt" horiz-adv-x="398" 
d="M179 568h207v-49l-50 -13q22 -22 22 -66v-164q0 -71 -29 -99t-113 -28h-37q-27 0 -41 5q-29 -3 -29 -25q0 -13 5.5 -17t26.5 -4h103q85 0 106 -19.5t21 -98.5v-5q0 -72 -29.5 -100t-112.5 -28h-98q-85 0 -110 26.5t-2 91.5q16 44 44 72q-28 6 -36 22t-8 50q0 37 46 58
q-28 27 -28 99v164q0 79 27.5 103.5t114.5 24.5zM179 234h37q24 0 35.5 10t11.5 39v151q0 29 -11.5 39t-35.5 10h-37q-24 0 -35.5 -10t-11.5 -39v-151q0 -29 11.5 -39t35.5 -10zM126 -61h108q24 0 35.5 10t11.5 39v12q0 22 -6 30.5t-26 8.5h-119q-16 -19 -21 -50
q-7 -31 -5 -40.5t22 -9.5zM226 602h-38q-51 0 -69 18t-18 68v11h58v-17q0 -32 31 -32h34q31 0 31 32v17h57v-11q0 -50 -18 -68t-68 -18z" />
    <glyph glyph-name="g.alt" horiz-adv-x="398" 
d="M179 568h207v-49l-50 -13q22 -22 22 -66v-164q0 -71 -29 -99t-113 -28h-37q-27 0 -41 5q-29 -3 -29 -25q0 -13 5.5 -17t26.5 -4h103q85 0 106 -19.5t21 -98.5v-5q0 -72 -29.5 -100t-112.5 -28h-98q-85 0 -110 26.5t-2 91.5q16 44 44 72q-28 6 -36 22t-8 50q0 37 46 58
q-28 27 -28 99v164q0 79 27.5 103.5t114.5 24.5zM179 234h37q24 0 35.5 10t11.5 39v151q0 29 -11.5 39t-35.5 10h-37q-24 0 -35.5 -10t-11.5 -39v-151q0 -29 11.5 -39t35.5 -10zM126 -61h108q24 0 35.5 10t11.5 39v12q0 22 -6 30.5t-26 8.5h-119q-16 -19 -21 -50
q-7 -31 -5 -40.5t22 -9.5z" />
    <glyph glyph-name="gdotaccent.alt" horiz-adv-x="398" 
d="M179 568h207v-49l-50 -13q22 -22 22 -66v-164q0 -71 -29 -99t-113 -28h-37q-27 0 -41 5q-29 -3 -29 -25q0 -13 5.5 -17t26.5 -4h103q85 0 106 -19.5t21 -98.5v-5q0 -72 -29.5 -100t-112.5 -28h-98q-85 0 -110 26.5t-2 91.5q16 44 44 72q-28 6 -36 22t-8 50q0 37 46 58
q-28 27 -28 99v164q0 79 27.5 103.5t114.5 24.5zM179 234h37q24 0 35.5 10t11.5 39v151q0 29 -11.5 39t-35.5 10h-37q-24 0 -35.5 -10t-11.5 -39v-151q0 -29 11.5 -39t35.5 -10zM126 -61h108q24 0 35.5 10t11.5 39v12q0 22 -6 30.5t-26 8.5h-119q-16 -19 -21 -50
q-7 -31 -5 -40.5t22 -9.5zM174 618v79h62v-79h-62z" />
    <glyph glyph-name="gcircumflex.alt" horiz-adv-x="398" 
d="M179 568h207v-49l-50 -13q22 -22 22 -66v-164q0 -71 -29 -99t-113 -28h-37q-27 0 -41 5q-29 -3 -29 -25q0 -13 5.5 -17t26.5 -4h103q85 0 106 -19.5t21 -98.5v-5q0 -72 -29.5 -100t-112.5 -28h-98q-85 0 -110 26.5t-2 91.5q16 44 44 72q-28 6 -36 22t-8 50q0 37 46 58
q-28 27 -28 99v164q0 79 27.5 103.5t114.5 24.5zM179 234h37q24 0 35.5 10t11.5 39v151q0 29 -11.5 39t-35.5 10h-37q-24 0 -35.5 -10t-11.5 -39v-151q0 -29 11.5 -39t35.5 -10zM126 -61h108q24 0 35.5 10t11.5 39v12q0 22 -6 30.5t-26 8.5h-119q-16 -19 -21 -50
q-7 -31 -5 -40.5t22 -9.5zM97 604l65 92h92l65 -92h-64l-47 52l-47 -52h-64z" />
    <glyph glyph-name="gcommaaccent.alt" horiz-adv-x="398" 
d="M179 568h207v-49l-50 -13q22 -22 22 -66v-164q0 -71 -29 -99t-113 -28h-37q-27 0 -41 5q-29 -3 -29 -25q0 -13 5.5 -17t26.5 -4h103q85 0 106 -19.5t21 -98.5v-5q0 -72 -29.5 -100t-112.5 -28h-98q-85 0 -110 26.5t-2 91.5q16 44 44 72q-28 6 -36 22t-8 50q0 37 46 58
q-28 27 -28 99v164q0 79 27.5 103.5t114.5 24.5zM179 234h37q24 0 35.5 10t11.5 39v151q0 29 -11.5 39t-35.5 10h-37q-24 0 -35.5 -10t-11.5 -39v-151q0 -29 11.5 -39t35.5 -10zM126 -61h108q24 0 35.5 10t11.5 39v12q0 22 -6 30.5t-26 8.5h-119q-16 -19 -21 -50
q-7 -31 -5 -40.5t22 -9.5zM236 696v-88h-64v78q0 30 8.5 50t30.5 50l27 -14l-9.5 -19t-7 -14.5t-3.5 -10.5t-2.5 -13.5t-0.5 -18.5h21z" />
    <glyph glyph-name="yacute.alt" 
d="M157 604l41 92h97l-74 -92h-64zM353 -10q-1 -72 -29.5 -95t-112.5 -23h-28q-83 0 -110 30.5t-27 112.5v15h88v-35q0 -27 10 -35t32 -8h39q23 0 32.5 8.5t10.5 35.5v57h-105q-118 0 -118 112v400h95v-385q0 -44 40 -44h88v429h95v-575z" />
    <glyph glyph-name="y.alt" 
d="M353 -10q-1 -72 -29.5 -95t-112.5 -23h-28q-83 0 -110 30.5t-27 112.5v15h88v-35q0 -27 10 -35t32 -8h39q23 0 32.5 8.5t10.5 35.5v57h-105q-118 0 -118 112v400h95v-385q0 -44 40 -44h88v429h95v-575z" />
    <glyph glyph-name="ydieresis.alt" 
d="M103 612v84h64v-84h-64zM223 612v84h64v-84h-64zM353 -10q-1 -72 -29.5 -95t-112.5 -23h-28q-83 0 -110 30.5t-27 112.5v15h88v-35q0 -27 10 -35t32 -8h39q23 0 32.5 8.5t10.5 35.5v57h-105q-118 0 -118 112v400h95v-385q0 -44 40 -44h88v429h95v-575z" />
    <glyph glyph-name="ycircumflex.alt" 
d="M84 604l65 92h92l65 -92h-64l-47 52l-47 -52h-64zM353 -10q-1 -72 -29.5 -95t-112.5 -23h-28q-83 0 -110 30.5t-27 112.5v15h88v-35q0 -27 10 -35t32 -8h39q23 0 32.5 8.5t10.5 35.5v57h-105q-118 0 -118 112v400h95v-385q0 -44 40 -44h88v429h95v-575z" />
    <glyph glyph-name="ygrave.alt" 
d="M353 -10q-1 -72 -29.5 -95t-112.5 -23h-28q-83 0 -110 30.5t-27 112.5v15h88v-35q0 -27 10 -35t32 -8h39q23 0 32.5 8.5t10.5 35.5v57h-105q-118 0 -118 112v400h95v-385q0 -44 40 -44h88v429h95v-575zM194 696l40 -92h-64l-73 92h97z" />
    <glyph glyph-name="RB" horiz-adv-x="900" 
d="M450 706q147 0 251.5 -104.5t104.5 -251.5t-104.5 -251.5t-251.5 -104.5t-251.5 104.5t-104.5 251.5t104.5 251.5t251.5 104.5zM420 241l-49 65q32 8 55.5 31.5t30.5 54.5q10 37 -9.5 63.5t-57.5 26.5h-90l-61 -241h181zM646 422q7 23 -7 40.5t-39 19.5h-108l-59 -241
h125q27 0 51.5 19t30.5 46q6 23 -6 40.5t-37 20.5q39 14 49 55z" />
    <glyph glyph-name="registered.alt" horiz-adv-x="524" 
d="M186 700h152q150 0 150 -141v-417q0 -142 -150 -142h-152q-149 0 -149 142v417q0 141 149 141zM186 16h152q132 0 132 126v417q0 126 -132 126h-152q-131 0 -131 -126v-417q0 -126 131 -126zM143 90v518h139q65 0 87.5 -19.5t22.5 -80.5v-96q0 -45 -10.5 -61t-43.5 -20
q32 -5 43 -23t11 -63v-155h-74v162q0 28 -10.5 38t-30.5 10h-60v-210h-74zM217 543v-181h65q17 0 26.5 7.5t9.5 29.5v107q0 22 -8.5 29.5t-27.5 7.5h-65z" />
    <glyph glyph-name="published" horiz-adv-x="524" 
d="M186 700h152q150 0 150 -141v-417q0 -142 -150 -142h-152q-149 0 -149 142v417q0 141 149 141zM186 16h152q132 0 132 126v417q0 126 -132 126h-152q-131 0 -131 -126v-417q0 -126 131 -126zM149 90v518h139q65 0 87.5 -20t22.5 -80v-131q0 -61 -22.5 -81t-87.5 -20h-65
v-186h-74zM223 543v-203h65q17 0 26.5 7.5t9.5 30.5v128q0 22 -8.5 29.5t-27.5 7.5h-65z" />
    <glyph glyph-name="parenleft.case" horiz-adv-x="208" 
d="M124 628v-560q0 -46 12 -71q4 -9 22.5 -31.5t20.5 -25.5l-39 -37q-40 28 -70 66q-31 37 -31 99v560q0 61 31 98q30 38 70 66l38 -37q-1 -2 -19.5 -25t-22.5 -32q-12 -25 -12 -70z" />
    <glyph glyph-name="parenright.case" horiz-adv-x="208" 
d="M84 68v560q0 45 -12 70q-4 9 -22.5 32t-19.5 25l38 37q40 -28 70 -66q31 -37 31 -98v-560q0 -62 -31 -99q-30 -38 -70 -66l-39 37q2 3 20.5 25.5t22.5 31.5q12 25 12 71z" />
    <glyph glyph-name="hyphen.case" horiz-adv-x="286" 
d="M21 318v78h244v-78h-244z" />
    <glyph glyph-name="bracketleft.case" horiz-adv-x="260" 
d="M126 695v-681h125v-72h-210v825h210v-72h-125z" />
    <glyph glyph-name="bracketright.case" horiz-adv-x="260" 
d="M134 14v681h-125v72h210v-825h-210v72h125z" />
    <glyph glyph-name="braceleft.case" horiz-adv-x="237" 
d="M8 326v51q1 1 9 5t15.5 9.5t16 14t13.5 22t5 29.5v171q0 59 31 98q27 35 70 66l34 -27q-3 -4 -18 -26t-20 -31q-12 -25 -12 -80v-171q0 -66 -58 -106q58 -40 58 -105v-178q0 -56 12 -81q4 -8 19.5 -30t18.5 -27l-34 -27q-40 29 -70 66q-31 39 -31 99v178q0 9 -1.5 17
t-4.5 14.5t-6 12t-8 10t-8.5 8t-9.5 7t-8.5 5l-7.5 4.5z" />
    <glyph glyph-name="bar.case" horiz-adv-x="236" 
d="M81 -70v830h75v-830h-75z" />
    <glyph glyph-name="braceright.case" horiz-adv-x="237" 
d="M228 377v-51l-5 -2l-7.5 -4.5t-8.5 -5t-9.5 -7t-8.5 -8t-8 -10t-6 -12t-4.5 -14.5t-1.5 -17v-178q0 -60 -31 -99q-30 -37 -70 -66l-34 27q3 5 18.5 27t19.5 30q12 25 12 81v178q0 65 58 105q-58 40 -58 106v171q0 55 -12 80q-5 9 -20 31t-18 26l34 27q43 -31 70 -66
q31 -39 31 -98v-171q0 -16 5 -29.5t13.5 -22t16 -14t15.5 -9.5t9 -5z" />
    <glyph glyph-name="guilsinglleft.case" horiz-adv-x="188" 
d="M106 181l-95 169v11l95 170h64l-78 -170v-11l78 -169h-64z" />
    <glyph glyph-name="guilsinglright.case" horiz-adv-x="188" 
d="M176 350l-95 -169h-64l78 169v11l-78 170h64l95 -170v-11z" />
    <glyph glyph-name="guillemotleft.case" horiz-adv-x="306" 
d="M220 181l-85 169v11l85 170h68l-73 -170v-11l73 -169h-68zM11 350v11l95 170h64l-78 -170v-11l78 -169h-64z" />
    <glyph glyph-name="guillemotright.case" horiz-adv-x="306" 
d="M171 350l-85 -169h-68l73 169v11l-73 170h68l85 -170v-11zM295 361v-11l-95 -169h-64l78 169v11l-78 170h64z" />
    <glyph glyph-name="endash.case" horiz-adv-x="394" 
d="M15 321v68h364v-68h-364z" />
    <glyph glyph-name="emdash.case" horiz-adv-x="564" 
d="M15 321v68h534v-68h-534z" />
    <glyph glyph-name="bullet.case" horiz-adv-x="264" 
d="M122 467h22q49 0 61 -15t12 -61v-74q0 -46 -12.5 -60.5t-60.5 -14.5h-22q-50 0 -62.5 14.5t-12.5 60.5v74q0 47 12.5 61.5t62.5 14.5z" />
    <glyph glyph-name="periodcentered.case" horiz-adv-x="176" 
d="M45 296v122h86v-122h-86z" />
    <glyph glyph-name="germandbls.case" horiz-adv-x="785" 
d="M189 703h21q93 0 126 -29t33 -118v-91h-100v99q0 36 -13.5 45t-45.5 9h-21q-16 0 -24.5 -1t-17.5 -6t-13 -16.5t-4 -30.5v-68q0 -20 3 -32t15.5 -21.5t21 -13t34.5 -13.5l69 -24q51 -19 75.5 -46.5t24.5 -90.5v-111q0 -89 -33.5 -118t-125.5 -29h-25q-92 0 -125.5 29
t-33.5 118v92h100v-99q0 -36 13.5 -45.5t45.5 -9.5h25q31 0 45 9.5t14 45.5v103q0 11 -1 19t-5 14t-6.5 10t-10.5 8.5t-12 6.5t-15 6.5t-16 6.5l-73 25q-27 11 -41.5 18.5t-31.5 22.5t-24 38t-7 56v85q0 89 33.5 118t125.5 29zM572 703h21q93 0 126 -29t33 -118v-91h-100v99
q0 36 -13.5 45t-45.5 9h-21q-16 0 -24.5 -1t-17.5 -6t-13 -16.5t-4 -30.5v-68q0 -20 3 -32t15.5 -21.5t21 -13t34.5 -13.5l69 -24q51 -19 75.5 -46.5t24.5 -90.5v-111q0 -89 -33.5 -118t-125.5 -29h-25q-92 0 -125.5 29t-33.5 118v92h100v-99q0 -36 13.5 -45.5t45.5 -9.5h25
q31 0 45 9.5t14 45.5v103q0 11 -1 19t-5 14t-6.5 10t-10.5 8.5t-12 6.5t-15 6.5t-16 6.5l-73 25q-27 11 -41.5 18.5t-31.5 22.5t-24 38t-7 56v85q0 89 33.5 118t125.5 29z" />
    <glyph glyph-name="i.dot" horiz-adv-x="168" 
d="M37 0v565h95v-565h-95zM42 618v79h84v-79h-84z" />
    <glyph glyph-name="caron.alt" horiz-adv-x="500" 
d="M226 656v82h54v-73q0 -19 -6 -35.5t-11.5 -25t-21.5 -28.5l-23 11q5 10 11 20t8.5 15t4.5 13.5t2 20.5h-18z" />
    </font>
</defs>
</svg>
