<svg xmlns="http://www.w3.org/2000/svg" xmlns:xlink="http://www.w3.org/1999/xlink" width="374.667" height="148.669" viewBox="0 0 374.667 148.669">
  <path fill="#FFF" fill-rule="evenodd" d="M0 0h374.667v148.669H0z" clip-rule="evenodd"/>
  <path fill="#004098" d="M6.263 4.508H369v30.663H6.263z"/>
  <path fill="#E60012" d="M6.263 34.927H369v109.191H6.263z"/>
  <path fill="#FFF" d="M12.863 39.786H363.14v99.971H12.863z"/>
  <defs>
    <path id="a" d="M-127-390.999h595.28v841.891H-127z"/>
  </defs>
  <clipPath id="b">
    <use overflow="visible" xlink:href="#a"/>
  </clipPath>
  <path fill="#E60012" fill-rule="evenodd" d="M202.68 69.956h.479v19.629c0 2.152-.536 6.105.479 7.416.445.836.946 1.119 1.436 1.439 2.671 1.758 6.158-.652 6.695-2.156.254-.975.657-1.41.722-2.629h39.726c3.64 0 13.753.691 16.031-.479-.246-1.82-3.207-5.453-4.495-6.402-.761-.557-1.617-1.072-2.68-1.258-1.388.104-2.585.572-3.679 1.137-.389.207-1.188.846-1.582 1.018H238.58v-5.029h19.144c1.94 0 5.864.537 6.946-.475.211-.264.086-.037.233-.484-1.176-2.195-2.349-3.621-4.038-4.875-.916-.676-1.938-1.682-3.142-1.824-2.568.107-3.869 1.518-5.744 2.152h-8.136c-1.404 0-5.264.047-5.264.047s-.034-3.354 0-4.59h17.95c1.694 0 6.89.1 6.89.1s.635-.342 1.007-.822c.221-.258-.009-.24-.263-.863-.247-.619-1.859-3.848-3.736-5.227-.712-.535-1.681-1.188-2.704-1.088-2.729.146-3.825 1.688-5.744 2.182-.835.221-10.75.17-13.638-.025v-4.79c4.898-.004 10.422-.074 14.942-.086 4.803-.012 14.208.039 14.208.039s-.031-.672.043-.672c-.402-2.891-6.73-7.342-7.898-7.42-2.519.199-3.677 1.732-5.497 2.484-4.706-.082-9.417-.012-14.125-.09.269-2.07 1.786-4.621 3.351-5.506-.589-1.955-4.56-2.736-6.747-3.234-.826-.186-1.842-.428-2.585.127-1.311.535-3.35 6.572-3.355 8.613h-14.837c.389-2.494 3.017-3.203 5.027-4.072-.131-1.779-1.621-2.027-2.763-2.734-2.658-1.656-6.082-3.477-9.687-3.248-.658 2.803-2.282 5.084-3.345 7.422-2.291 4.992-4.677 9.66-7.417 14.125-.484.773-4.972 8.789-5.974 9.561 0 .074.225.408.225.484 3.338-.411 9.278-5.532 10.773-7.897m9.568-7.896h16.754v4.789c-5.494 0-11.658.299-16.754-.238V62.06zm0 10.533h16.754v4.543c-5.537 0-11.597.068-16.754-.238v-4.305zm0 10.287h16.754v4.791c-5.494 0-11.658.297-16.754-.244V82.88zM88.999 55.36c-.094-3.359-4.789-9.133-5.744-8.855-1.707.107-2.917 1.5-3.601 2.635H29.161c.96 2.072 1.915 4.146 2.875 6.221h56.963zm87.591-7.896c-2.922.238-2.792 3.061-5.026 3.828-.748.52-2.887.238-4.063.238h-46.196c-1.064-.443-2.334-1.771-3.355-2.391a955.59 955.59 0 0 0-3.587-1.438c-.851-.01-1.616.043-2.152.236-.956 5.053-.242 12.375-.242 17.951 0 12.732.242 38.053.242 38.053s.069 6.402-.056 8.449c-1.185 13.525-4.327 17.947-5.446 19.072v.482c5.497-3.104 11.064-6.787 14.363-12.076.743-1.557.682-1.055 1.802-4.172.35-1.172.346-3.855.346-3.855V83.118h.237c.921 1.805 2.127 3.613 3.112 5.512h14.596v5.5c3.393-.445 6.38-1.732 10.296-1.676V88.63h20.825v21.537c0 4.01.281 8.955-.484 12.209-2.04.395-4.988.26-7.417.234v-19.865l2.874-2.391c-.099-2.693-4.015-8.713-6.22-9.094-.998-.535-4.715 2.43-5.268 3.35h-16.754c-1.469-.514-3.237-1.979-4.788-2.633-.835-.348-1.751-.221-2.391-.717-3.523.021-2.636 3.375-2.636 6.701v19.859c0 1.625-.407 7.002.237 7.9v.48c3.345.631 8.139-1.828 9.578-3.826h15.556v.471c.544.566 1.297 1.471 1.92 1.916 1.192.869 2.256 1.123 3.825 1.676.726.252 2.424.898 3.35.246h.475c.125-.621.238-1.066.242-1.922 3.198.367 8.065 5.373 8.852 8.135 3.89-.092 6.769-1.949 8.147-4.539.397-1.283.791-2.555 1.192-3.834V59.661h.238c.57-.787 2.554-2.637 3.346-3.346-.428-3.082-7.47-6.769-9.57-8.851m-35.426 33.519c-5.886 0-12.728-.039-18.183-.02V68.759h.238c.462 1.768 2.005 4.615 2.874 6.225h15.071v5.999zm.247-13.589c-5.727-.213-12.322-.078-18.43-.068v-7.664h18.183c-.021 1.525-.358 6.592.247 7.426v.306zm30.874 18.365h-.484c-1.02-2.08-2.459-4.137-3.825-5.986-.532-.73-1.224-1.656-2.153-1.678-1.188.164-3.069 2.006-3.591 2.869H151.46v-5.98h19.865c-.298-1.141-.929-1.586-1.435-2.391-1.223-1.936-2.027-3.912-3.349-5.744-.558-.479-1.12-.959-1.677-1.439-1.825.07-1.937 1.029-2.871 1.916-.505.271-8.7.016-10.533 0-.06-2.85 1.431-4.254 3.112-5.266-.052-1.262-.419-1.863-1.435-2.156v-.242h19.148v26.097zm-17.471 28.474c-4.525-.869-10.594-.268-15.556-.236v-12.441h15.556v12.677zm196.733-66.769c-.247 0-.247-.324-.722 0-.39.406-1.038.557-1.436.957H278.31c.319 1.752.631 3.512.955 5.262.251 1.041.237 3.107.237 3.107v68.694c0 2.219-.275 5.229.48 6.701 1.629.648 4.274.492 5.981-.238.182-.078.588-.67.722-.719h53.843c1.56 0 3.617.166 4.789-.242.315.719.635 1.439.96 2.152 2.891.541 5.057-.99 6.946-2.152.037-.561.017-.674.233-.957V57.513c.22-.41 2.186-1.621 2.627-2.152.225-.264.203-.307.48-.959-.253-3.272-3.08-5.581-5.016-6.938m-7.661 77.299h-50.504c-1.815 0-4.322.25-5.745-.238.082-23.371.161-46.752.242-70.123h56.007v70.361zm-51.459-59.592c1.984.377 4.819.238 7.18.238h12.21v3.35h-13.892c-.99-.281-2.205-1.051-3.107-1.434-1.086-.469-1.851-.65-2.874-1.193h-.229c.043 1.387.463 2.074.44 3.689 0 2.08.03 5.244.03 7.314 0 4.961.156 9.764.087 14.691 0 .531.722.699.722.777 3.182.674 4.987-.627 5.896-3.02h12.928v4.299c-2.58 0-20.189.965-21.542.965.951 1.607 2.175 3.074 3.107 4.783 2.697-.176 39.329-2.385 40.686-2.385.242.393.476.795.718 1.193.684 1.051 3.328 1.836 5.377 1.512 1.037-.164 1.417-.5 2.049-1.275.186-5.816-5.296-5.57-9.579-6.936-.938-.309-5.64-1.846-5.502-.955.289.838 1.146 1.322 1.916 1.668 1.896.684 0 .484 0 .484s-6.866.311-10.297.471v-3.824h12.933c.397.176.907 1.023 1.439 1.201 2.14.721 4.024-.824 4.399-1.441.225-1.09 0-6.24.144-8.617v-6.699c.064-.143 2.585-1.504 2.865-1.678-.112-2.658-3.978-4.234-5.498-5.74-1.4.082-2.14.961-2.399 2.148h-13.883v-3.35h16.996c7.286.305 6.958-.453 7.179-.717-.143-4.311-5.753-7.369-6.454-7.66-2.035.082-2.749.994-2.878 2.158v.664c-.989.082-9.578.049-13.878.049.263-.562.743-1.242.241-1.91-.453-1.025-7.213-2.037-8.861-2.152.238 1.434.723 3.932.723 3.932s-20.189-.111-22.981-.111c1.194 1.911 2.603 3.247 3.589 5.511M94.981 57.032c-2.554-.064-3.539 1.902-6.194 2.572-12.69 0-64.808.057-70.634.057 1.258 2.176 2.135 4.9 3.354 7.188h19.381c.238 1.992 1.53 6.506 2.727 7.465-2.766.082-11.674.562-16.13-1.004-.999-.348-4.936-1.262-5.502-.959-.567.174-.536.246-.96.477v60.07c3.566-.848 9.224-3.734 10.296-6.934v-25.848c3.782.541 6.383-1.439 6.457-1.439v17.953c0 1.701.069 4.1-.519 6.836.078.898.333 1.002.761 1.297a11.61 11.61 0 0 0 5.749-1.676c.315-.191.739-.736 1.14-.865 1.799-.611 6.277-.33 6.277-.33h18.905c.536.252.766 1.285 1.202 1.678 1.098 1.012 4.361 2.811 7.655 1.678v-.723h.955c.566.631 1.025 5.342 8.134 7.9 3.178-.199 4.625-2.488 5.982-4.551.77-1.154 1.725-2.559 2.157-4.066V82.88c.346-.959 2.118-1.416 1.915-2.871-.147-1.027-1.335-1.736-1.915-2.389-1.392-1.568-3.203-5.092-5.264-5.75-.821-.379-3.502 1.807-4.072 2.635H76.309c.394-1.225 3.653-2.938 4.785-3.59.415-1.824.246-2.164 0-4.066h19.869c.251-2.991-4.538-9.237-5.982-9.817M42.09 87.194c-1.262 2.881-3.372 5.164-5.507 7.18-4.391 4.117-4.949 3.82-5.027 3.82V82.88h11.727c-.528 1.478-.597 2.93-1.193 4.314m5.502 28.237v-11.004h14.843c1.508 0 4.732-.477 5.74.238.181.24.19 9.145.237 11.006-6.483-.408-13.948-.258-20.82-.24m21.3-18.184h-21.3c-1.102-.324-2.148-1.141-3.354-1.439 2.33-2.092 3.51-3.367 4.546-4.789 1.799-2.438 3.234-5.238 4.552-8.139h9.574c-.078 5.582-.194 10.293 3.108 12.443.994.652 2.584.549 3.834.961-.411.428-.692.332-.96.963m-1.093-22.976c-.606-.016-1.302-.01-1.302-.01H52.852c-.299-.229-1.02-3.695-1.431-4.305-.821-1.201-2.42-1.375-2.152-3.107H68.65c.475.662 2.174 1.893 2.395 2.152-.104 3.129-2.594 2.822-3.246 5.27m18.088 46.91h-6.941v-16.516c.237-.164 2.234-1.639 2.632-4.311-.813-2.438-4.15-3.107-4.309-3.107v-.246a4974.1 4974.1 0 0 0 8.618-.477v24.657zm0-38.301v6.221c-2.528.029-10.953.578-12.21-.471-1.945-.598-1.776-3.152-1.677-5.75h13.887zm160.109 26.334v-.479c5.586-.092 11.17-.164 16.749-.246 1.704 0 5.546.574 6.709-.236.217-.26.091-.035.233-.48-2.301-2.262-3.769-7.105-7.177-8.141-1.845-1.273-5 1.039-6.222 1.436H238.1c.03-1.23.327-3.768-.242-4.543-1.639-1.234-7.353-.18-8.856-1.201-.554.074-.583.109-.96.238.199 1.088-.151 4.379.484 5.266v.24h-22.981c-1.703 0-7.399.045-8.372 0h-1.431c.467 1.764 1.828 3.248 2.628 4.789.392.766.44 1.76.959 2.396.575.49 1.837.314 2.153.482h15.551c-2.839 6.156-9.98 12.439-15.31 16.27-2.179 1.564-4.63 3.971-7.422 4.791v.469c9.843-.135 19.339-5.605 25.368-9.801 3.005-2.1 6.151-4.104 8.135-7.189h.48v14.361c0 1.418-.416 4.336.241 5.262.078.24.363.586.657.67 2.536.244 6.432-1.621 7.481-3.061.657-.898 1.038-1.055 1.436-3.111v-15.314c1.923 1.789 3.017 3.242 4.305 4.549 3.531 3.582 7.045 6.879 11.251 9.809 1.146.801 3.699 3.51 5.98 2.871 3.883-1.084 7.972-6.061 11.248-8.129-16.567-2.99-22.881-9.806-24.887-11.968m90.846-9.016c-.553.605-.699.77-1.097 1.586-.605-.012-1.518-.229-1.678-.229v-2.16c-2.943-.316-5.899-.645-8.853-.955.031.766.092 2.342.48 2.869v.475h-24.407c-1.825 0-9.738-.229-10.055-.229.286.969 2.007 4.482 2.866 4.783.98.686 6.868.236 8.621.236h22.975c.024 2.027.718 5.43-.328 7.213-.186.566-.23.383-.631.688-.623.35-6.903-.424-8.135-.717-.809-.195-3.597-.723-4.231-.723 1.754 2.787 4.378 2.76 6.859 4.547 1.456 1.051 2.152 3.764 2.395 5.986 5.433.021 11.251-3.105 12.443-7.18v-8.855c1.599.021 7.032.387 7.896-.236.86-.312 1.293-1.199.718-2.162-.361-.622-5.765-4.937-5.838-4.937m-26.227 14.035c-.523-1.686-2.256-1.717-3.829-2.391-2.287-.988-9.777-3.107-12.613-3.125-.476.424-.294.416-.073.727 1.521 1.186 1.711 1.475 2.633 2.16 2.545 1.867 5.307 7.08 8.139 7.895.401.307 1.184.24 1.915.24 2.864 0 5.286-1.383 4.308-4.309-.221-.665-.143-.517-.48-1.197" clip-path="url(#b)" clip-rule="evenodd"/>
  <path fill="#E60012" d="M360.523 137.38H15.235V42.647h345.289v94.733zm-343.788-1.492h342.29v-91.74H16.735v91.74z" clip-path="url(#b)"/>
  <path fill="#E60012" d="M104.361 43.396h1.495v93.492h-1.495zM189.25 43.396h1.491v93.492h-1.491zM273.141 43.396h1.5v93.492h-1.5z" clip-path="url(#b)"/>
  <text fill="#FFF" font-family="'Arial-BoldMT'" font-size="25.865" transform="matrix(1 0 0 1.0468 11.01 30.84)">
    BUSINESS
  </text>
  <text fill="#FFF" font-family="'Arial-BoldMT'" font-size="25.865" transform="matrix(1 0 0 1.0468 143.231 30.84)">
    
  </text>
  <text transform="matrix(1 0 0 1.0468 152.49 30.84)">
    <tspan x="0" y="0" fill="#FFF" font-family="'Arial-BoldMT'" font-size="25.865">WEEK</tspan><tspan x="77.595" y="0" fill="#FFF" font-family="'Arial-BoldMT'" font-size="25.865" letter-spacing="-2">L</tspan><tspan x="91.04" y="0" fill="#FFF" font-family="'Arial-BoldMT'" font-size="25.865">Y</tspan>
  </text>
  <text fill="#FFF" font-family="'Arial-BoldMT'" font-size="25.865" transform="matrix(1 0 0 1.0468 260.295 30.84)">
    
  </text>
  <text fill="#FFF" font-family="'Arial-BoldMT'" font-size="25.865" transform="matrix(1 0 0 1.0468 269.451 30.84)">
    GROUP
  </text>
  <g>
    <defs>
      <path id="c" d="M-127-390.999h595.28v841.891H-127z"/>
    </defs>
    <clipPath id="d">
      <use overflow="visible" xlink:href="#c"/>
    </clipPath>
    <path fill="#FFF" fill-rule="evenodd" d="M299.069 73.276h12.838v4.027h-12.838zM318.64 73.276h12.844v4.027H318.64zM299.069 81.503h12.838v4.027h-12.838zM318.64 81.503h12.844v4.027H318.64z" clip-path="url(#d)" clip-rule="evenodd"/>
  </g>
</svg>
