<?xml version="1.0" encoding="utf-8"?>
<!-- Generator: Adobe Illustrator 19.2.1, SVG Export Plug-In . SVG Version: 6.00 Build 0)  -->
<svg version="1.1" id="圖層_1" xmlns="http://www.w3.org/2000/svg" xmlns:xlink="http://www.w3.org/1999/xlink" x="0px" y="0px"
	 viewBox="0 0 19 20" style="enable-background:new 0 0 19 20;" xml:space="preserve">
<style type="text/css">
	.st0{fill:#333333;}
</style>
<path class="st0" d="M14,3H5C4,3,3,4,3,5v13c0,1,1,2,2,2h9c1,0,2-1,2-2V5C16,4,15,3,14,3z M15,17H4V4h11V17L15,17z M10,18.5
	c0,0.3-0.2,0.5-0.5,0.5S9,18.8,9,18.5S9.2,18,9.5,18S10,18.2,10,18.5z"/>
</svg>
