<?xml version="1.0" encoding="utf-8"?>
<!-- Generator: Adobe Illustrator 19.2.1, SVG Export Plug-In . SVG Version: 6.00 Build 0)  -->
<svg version="1.1" id="圖層_1" xmlns="http://www.w3.org/2000/svg" xmlns:xlink="http://www.w3.org/1999/xlink" x="0px" y="0px"
	 viewBox="0 0 19 20" style="enable-background:new 0 0 19 20;" xml:space="preserve">
<style type="text/css">
	.st0{fill:#333333;}
</style>
<g>
	<path class="st0" d="M15.7,3H3.3C2.1,3,1,4,1,5.3v10.2c0,1.1,1.1,2.3,2.3,2.3h12.5c1.1,0,2.3-1.1,2.3-2.3V5.3C18,4,16.9,3,15.7,3z
		 M9.5,16.6c-0.3,0-0.6-0.2-0.6-0.6s0.2-0.6,0.6-0.6s0.6,0.2,0.6,0.6S9.8,16.6,9.5,16.6z M16.9,14.3H2.1V4.1h14.7
		C16.9,4,16.9,14.3,16.9,14.3z"/>
	<rect x="6.7" y="18.9" class="st0" width="5.7" height="1.1"/>
</g>
</svg>
