<svg xmlns="http://www.w3.org/2000/svg" width="25" height="25" viewBox="0 0 25 25"><path d="M18.5 25h-12C2.916 25 0 22.084 0 18.5v-12C0 2.916 2.916 0 6.5 0h12C22.084 0 25 2.916 25 6.5v12c0 3.584-2.916 6.5-6.5 6.5zM6.5 1C3.467 1 1 3.467 1 6.5v12C1 21.532 3.467 24 6.5 24h12c3.032 0 5.5-2.468 5.5-5.5v-12C24 3.467 21.532 1 18.5 1h-12z"/><path d="M8.03 11.97c-.293-.293-.768-.293-1.06 0s-.294.768 0 1.06l4.166 4.168c.293.293.768.293 1.06 0l6.668-6.667c.293-.292.293-.767 0-1.06s-.768-.293-1.06 0l-6.137 6.136L8.03 11.97z"/></svg>