<svg width="22" height="22" xmlns="http://www.w3.org/2000/svg" xmlns:xlink="http://www.w3.org/1999/xlink"><defs><path id="path-1" d="M10 1.027L7.476.688l.053 7.627H10z"/></defs><g id="Symbols" fill="none" fill-rule="evenodd"><g id="food_icon"><circle fill="#E07654" cx="10.5" cy="10.5" r="8.5"/><g id="icon_food" transform="translate(5 5)"><path d="M3.788 1.284v9.345" id="Stroke-1" stroke="#FFFFFF" stroke-width="1.059" stroke-linecap="round" stroke-linejoin="round"/><path d="M7.64 1.284v9.342" id="Stroke-3" stroke="#FFFFFF" stroke-width="1.059" stroke-linecap="round" stroke-linejoin="round"/><path d="M5.873 1.926V4.41c0 .968-.764 1.753-1.707 1.753h-.534c-.943 0-1.706-.785-1.706-1.753V1.926" id="Stroke-5" stroke="#FFFFFF" stroke-width="1.059" stroke-linecap="round" stroke-linejoin="round"/><path d="M1.926 4.494c.17 1.166 1.02 2.054 2.048 2.054S5.85 5.66 6.022 4.494H1.926z" id="Fill-7" fill="#FFFFFF"/><mask id="mask-2" fill="white"><use xlink:href="#path-1"/></mask><path d="M8.024.963s2.02 1.593 1.977 4.65C9.957 8.67 7.528 8.3 7.528 8.3V1.185l.496-.222z" id="Fill-9" fill="#FFFFFF" mask="url(#mask-2)"/></g><path d="M0 0h22v22H0z"/></g></g></svg>

