<svg xmlns="http://www.w3.org/2000/svg" width="20" height="20" viewBox="0 0 20 20"><g fill="#000" fill-rule="evenodd"><path d="M3.083 10.175l-.18-2.89c-.017-.275.193-.512.468-.53.08-.004.157.01.23.04l2.382 1.01c.256.11.374.402.266.657-.03.07-.077.134-.136.185L3.91 10.525c-.21.18-.527.154-.706-.057-.07-.082-.112-.185-.12-.293z"/><path fill-rule="nonzero" stroke="#000" stroke-width=".25" d="M10.417 6.667c0-.23-.187-.417-.417-.417-.23 0-.417.187-.417.417v4.055c0 .112.046.22.127.3l2 1.943c.164.16.428.157.59-.008.16-.165.155-.43-.01-.59l-1.873-1.82v-3.88z"/><path fill-rule="nonzero" stroke="#000" stroke-width=".25" d="M4.08 12.69c.678 1.487 1.897 2.67 3.403 3.305.254.107.548-.013.655-.268.107-.254-.013-.547-.268-.654-1.274-.536-2.306-1.54-2.878-2.797-.115-.25-.41-.362-.663-.248-.253.115-.364.41-.25.663zM10 16.5c3.59 0 6.5-2.91 6.5-6.5S13.59 3.5 10 3.5c-2.29 0-4.377 1.196-5.55 3.115-.337.55-.59 1.15-.75 1.777-.068.268.094.54.362.608.267.068.54-.094.608-.36.135-.532.35-1.038.633-1.503C6.296 5.512 8.06 4.5 10 4.5c3.038 0 5.5 2.462 5.5 5.5s-2.462 5.5-5.5 5.5c-.276 0-.5.224-.5.5s.224.5.5.5z"/></g></svg>
