<?xml version="1.0" encoding="utf-8"?>
<!-- Generator: Adobe Illustrator 13.0.1, SVG Export Plug-In . SVG Version: 6.00 Build 14948)  -->
<!DOCTYPE svg PUBLIC "-//W3C//DTD SVG 1.1//EN" "http://www.w3.org/Graphics/SVG/1.1/DTD/svg11.dtd">
<svg version="1.1" id="圖層_1" xmlns="http://www.w3.org/2000/svg" xmlns:xlink="http://www.w3.org/1999/xlink" x="0px" y="0px"
	 width="59.976px" height="80.268px" viewBox="0 0 59.976 80.268" enable-background="new 0 0 59.976 80.268" xml:space="preserve">
<g>
	<path fill="#CC0000" d="M59.976,9.896V6.697C59.976,2.249,57.727,0,53.278,0H6.697C2.249,0,0,2.249,0,6.697v3.199H59.976
		L59.976,9.896z"/>
	<path fill="#F20606" d="M0,80.268h1.2l28.788-24.291l28.689,24.291h1.299V13.195H0V80.268L0,80.268z M52.979,25.689l3.499,0.2
		c-3.249,11.045-4.849,16.593-4.798,16.593h-3.599l-1.899-8.796c-1.649,5.398-2.649,8.347-2.899,8.796h-3.598
		c-0.051,0-0.851-5.647-2.3-16.893h3.499l1.1,10.795l3.698-9.396l0.1-0.1h2.699l1.6,9.096C51.929,29.738,52.929,26.29,52.979,25.689
		L52.979,25.689z M4.498,42.684L6.597,25.99h3.499c1.799,2.549,3.999,6.347,6.598,11.495l0.6-11.895l3.999,0.1l-1.999,16.793
		l-0.1,0.1h-3.499L9.096,30.088l-0.7,12.596H4.498L4.498,42.684z M36.186,25.689l-0.1,2.799h-9.997l-0.3,4.198
		c5.148,0,8.397-0.1,9.796-0.3v3.198l-9.796,0.1c-0.2,1.799-0.25,2.999-0.1,3.599c0.15,0.25,0.35,0.45,0.6,0.5
		c0.15,0.05,1.649,0.05,4.499,0c2.849-0.05,4.647-0.15,5.397-0.2l-0.3,2.998c-7.397,0.15-11.346,0.051-11.896-0.199
		c-1.049-0.549-1.649-1.1-1.799-1.699c-0.15-0.35-0.05-2.749,0.3-7.297c0.399-4.948,0.6-7.447,0.6-7.497L36.186,25.689
		L36.186,25.689z"/>
	<path fill="#FFFFFF" d="M56.478,25.89l-3.499-0.2c-0.05,0.6-1.05,4.048-2.898,10.296l-1.6-9.096h-2.699l-0.1,0.1l-3.698,9.396
		l-1.1-10.795h-3.499c1.449,11.245,2.249,16.893,2.299,16.893h3.599c0.25-0.449,1.25-3.398,2.899-8.796l1.899,8.796h3.599
		C51.629,42.482,53.229,36.935,56.478,25.89L56.478,25.89z"/>
	<path fill="#FFFFFF" d="M6.597,25.99L4.498,42.684h3.898l0.7-12.596l6.598,12.494h3.499l0.1-0.1l1.999-16.793l-3.999-0.1
		l-0.6,11.895c-2.599-5.148-4.798-8.946-6.598-11.495H6.597L6.597,25.99z"/>
	<path fill="#FFFFFF" d="M36.086,28.489l0.1-2.799l-13.095,0.2c0,0.05-0.2,2.549-0.6,7.497c-0.35,4.548-0.45,6.947-0.3,7.297
		c0.15,0.6,0.75,1.15,1.799,1.699c0.55,0.25,4.498,0.35,11.896,0.199l0.3-2.998c-0.75,0.05-2.549,0.15-5.397,0.2
		c-2.849,0.05-4.349,0.05-4.499,0c-0.25-0.05-0.45-0.25-0.6-0.5c-0.15-0.6-0.1-1.799,0.1-3.599l9.796-0.1v-3.198
		c-1.399,0.2-4.648,0.3-9.796,0.3l0.3-4.198H36.086L36.086,28.489z"/>
</g>
</svg>
