<?xml version="1.0" encoding="UTF-8" standalone="no"?>
<!-- Generator: Adobe Illustrator 19.0.0, SVG Export Plug-In . SVG Version: 6.00 Build 0)  -->

<svg
   xmlns:dc="http://purl.org/dc/elements/1.1/"
   xmlns:cc="http://creativecommons.org/ns#"
   xmlns:rdf="http://www.w3.org/1999/02/22-rdf-syntax-ns#"
   xmlns:svg="http://www.w3.org/2000/svg"
   xmlns="http://www.w3.org/2000/svg"
   xmlns:sodipodi="http://sodipodi.sourceforge.net/DTD/sodipodi-0.dtd"
   xmlns:inkscape="http://www.inkscape.org/namespaces/inkscape"
   version="1.1"
   id="Capa_1"
   x="0px"
   y="0px"
   viewBox="0 0 476.737 476.737"
   style="enable-background:new 0 0 476.737 476.737;"
   xml:space="preserve"
   inkscape:version="0.48.4 r9939"
   width="100%"
   height="100%"
   sodipodi:docname="play-button2.svg"><metadata
   id="metadata3081"><rdf:RDF><cc:Work
       rdf:about=""><dc:format>image/svg+xml</dc:format><dc:type
         rdf:resource="http://purl.org/dc/dcmitype/StillImage" /></cc:Work></rdf:RDF></metadata><defs
   id="defs3079" /><sodipodi:namedview
   pagecolor="#ffffff"
   bordercolor="#666666"
   borderopacity="1"
   objecttolerance="10"
   gridtolerance="10"
   guidetolerance="10"
   inkscape:pageopacity="0"
   inkscape:pageshadow="2"
   inkscape:window-width="731"
   inkscape:window-height="480"
   id="namedview3077"
   showgrid="false"
   inkscape:zoom="0.60830185"
   inkscape:cx="301.09435"
   inkscape:cy="238.3685"
   inkscape:window-x="1992"
   inkscape:window-y="158"
   inkscape:window-maximized="0"
   inkscape:current-layer="Capa_1" />
<g
   id="g3035"
   style="fill:#ffffff">
	<g
   id="g3037"
   style="fill:#ffffff">
		<g
   id="g3039"
   style="fill:#ffffff">
			<g
   id="g3041"
   style="fill:#ffffff">
				<path
   style="fill:#ffffff"
   d="M238.369,0C106.726,0,0,106.726,0,238.369c0,131.675,106.726,238.369,238.369,238.369      c131.675,0,238.369-106.694,238.369-238.369C476.737,106.726,370.043,0,238.369,0z M238.369,444.955      c-113.908,0-206.586-92.678-206.586-206.586S124.46,31.782,238.369,31.782s206.586,92.678,206.586,206.586      S352.277,444.955,238.369,444.955z"
   id="path3043" />
				<path
   style="fill:#ffffff"
   d="M343.759,227.976L221.206,130.88c-6.897-5.403-18.084-5.403-24.981,0l-0.159,0.159      c-3.305,2.511-5.371,6.007-5.371,9.916v194.191c0,3.973,2.193,7.501,5.594,9.98l-0.064,0.064c6.897,5.435,18.084,5.435,24.981,0      l123.221-97.318c6.929-5.403,6.929-14.207,0-19.61L343.759,227.976z"
   id="path3045" />
			</g>
		</g>
	</g>
</g>
<g
   id="g3047">
</g>
<g
   id="g3049">
</g>
<g
   id="g3051">
</g>
<g
   id="g3053">
</g>
<g
   id="g3055">
</g>
<g
   id="g3057">
</g>
<g
   id="g3059">
</g>
<g
   id="g3061">
</g>
<g
   id="g3063">
</g>
<g
   id="g3065">
</g>
<g
   id="g3067">
</g>
<g
   id="g3069">
</g>
<g
   id="g3071">
</g>
<g
   id="g3073">
</g>
<g
   id="g3075">
</g>
</svg>